<svg id="Camada_1" data-name="Camada 1" xmlns="http://www.w3.org/2000/svg" xmlns:xlink="http://www.w3.org/1999/xlink" viewBox="0 0 929 715.2"><defs><style>.cls-1,.cls-3{fill:none;}.cls-2{fill:#dcdcda;stroke:#fff;stroke-miterlimit:10;stroke-width:0.18px;isolation:isolate;opacity:0.13;}.cls-3{stroke:#252953;stroke-linecap:round;stroke-linejoin:round;stroke-width:0.49px;}.cls-4{fill:#dcdbda;}.cls-5{fill:#1f2447;}.cls-6{fill:#f2f2f2;}.cls-7{fill:#81cdf4;}.cls-8{fill:#e41e59;}.cls-9{fill:#1e2548;}.cls-10{fill:#f4f4f4;}.cls-11,.cls-20{fill:#fff;}.cls-12{fill:#f5f5f5;}.cls-13{fill:#165096;}.cls-14{opacity:0.3;}.cls-15{fill:#1a2e35;}.cls-16{fill:#80cdf3;}.cls-17{fill:#fafafa;}.cls-18{fill:url(#Gradiente_sem_nome_2);}.cls-19{clip-path:url(#clip-path);}.cls-20{opacity:0.15;}.cls-21{fill:#272755;}.cls-22{fill:#1c2647;}.cls-23{fill:#e51a57;}.cls-24{fill:#f8d760;}</style><linearGradient id="Gradiente_sem_nome_2" x1="606.57" y1="186.42" x2="525.47" y2="267.51" gradientUnits="userSpaceOnUse"><stop offset="0.27" stop-color="#1d2548"/><stop offset="0.56" stop-color="#1f2548"/><stop offset="0.66" stop-color="#262548"/><stop offset="0.73" stop-color="#312547"/><stop offset="0.79" stop-color="#422547"/><stop offset="0.84" stop-color="#582546"/><stop offset="0.89" stop-color="#742545"/><stop offset="0.93" stop-color="#942644"/><stop offset="0.97" stop-color="#b82643"/><stop offset="1" stop-color="#e12642"/><stop offset="1" stop-color="#e32642"/></linearGradient><clipPath id="clip-path"><path class="cls-1" d="M563.47,198.42S537.32,258,563.28,265s42.43-15.84,42.43-15.84,12.75,7.29,17.82-5.91c.23-.6,2.2-11-8.24-13,0,0-6.87-1.11-9,2.5L610.73,209Z"/></clipPath></defs><rect class="cls-1" x="5.04" y="-3.46" width="916.35" height="712.72"/><path id="Caminho_53" data-name="Caminho 53" class="cls-2" d="M395.43,586c96.78-83.35,239.37-71.18,353.86-134.64,29.07-16.09,52.1-32.22,47.92-67.87-4.3-36.59-36-41.23-63.08-43.13-68.21-4.81-96.13-44-106.15-107-29.86-188-111.56-150.85-198.49-54.18-32.74,36.42-69.61,41.47-112.78,37.74C279.35,213.67,241.39,211.3,210,237c-27.5,22.54-54.19,44.74-24.64,86.76,21,29.78,18.61,68.29,11.15,101.79C166.77,559.7,275.48,604.1,395.43,586Z"/><path id="Caminho_54" data-name="Caminho 54" class="cls-3" d="M355.09,589.46A80.37,80.37,0,0,0,394.77,571C485.16,493.88,619,491.07,722.24,422.68c27.72-18.33,49.42-36.2,42.46-71.44-7.16-36.12-39-38.27-66.26-38-68.37.55-99.27-36.36-114.18-98.27-44.52-185.12-123-141.65-202.15-38.48-29.77,38.88-66.22,46.74-109.46,46.38-37.52-.31-75.5.32-104.87,28.43-25.6,24.61-50.54,48.85-17.77,88.45,23.27,28.18,24,66.6,19.09,100.59C151.27,566.56,246.63,606.42,355.09,589.46Z"/><path class="cls-4" d="M512.27,330.91c-15.53-74,24.66-81.18,60.6-104.36,12-7.71,25.63-13,39.71-16.48,20.63-5.18,43.27-6.63,62.91,1.16,14.2,5.63,25.89,15.74,35.07,27.21,30.63,38.23,34,88.91,35.29,136.43.94,35.67,1.3,71.59-5.32,106.75-3.27,17.33-8.37,34.71-18.7,49.49s-25.58,26.37-41.38,36.42C626.07,602.1,561,622.25,495.06,625c-20.38.85-41.08,0-60.64-5.32-51.63-14.12-89-59.83-97.71-108.82-2.86-16-3-32.68,2.05-48.23,6.75-20.77,22.56-38.47,41.88-50.85s42-19.73,65.07-24c17.59-3.25,36.2-5,51.2-14.09s24.52-28.71,14.67-42.53"/><path class="cls-5" d="M527.37,330.46c-3.66-17.61-5.84-37.1.73-54.33,4.65-12.21,13.81-21.4,24.46-28.62,11-7.45,23-13.21,34.17-20.31a139.69,139.69,0,0,1,69.09-21.33c12.52-.43,25.25,1.29,36.77,6.4a84.19,84.19,0,0,1,27.19,20c15.28,16.46,25.16,37.18,31,58.71s7.87,44,8.86,66.21c1.13,25.33,1.71,50.82.56,76.15a358.21,358.21,0,0,1-3.9,39.91c-1.92,12.1-4.5,24.18-8.82,35.67A95.09,95.09,0,0,1,729,539.64c-8,8.85-17.53,16.26-27.41,22.92-39.73,26.8-85.38,45-132.27,54.48a366.46,366.46,0,0,1-73.63,7.49c-23.84-.09-47.7-3.62-69.23-14.3-35.7-17.7-62.63-51.72-72.52-90.22-6-23.31-6.15-48.81,5.43-70.44,10.69-20,28.86-35,48.86-45a180.16,180.16,0,0,1,35-12.94c11.58-3,23.37-4.79,35.12-6.94,19.76-3.6,42.35-10.13,50.36-30.75,3-7.75,2.81-16.38-2-23.34-.27-.39-.92,0-.64.38,5.83,8.42,4.56,19-.34,27.49-5.63,9.84-15,16-25.47,19.88-11.45,4.23-23.64,5.87-35.61,7.95a233.33,233.33,0,0,0-36.09,9c-21.76,7.49-42.47,19.19-57.76,36.66a88.63,88.63,0,0,0-16.32,26.63c-4.53,11.86-5.89,24.69-5.12,37.31a136.5,136.5,0,0,0,17.78,58.59A142.87,142.87,0,0,0,406,598.58a133.26,133.26,0,0,0,59.49,24.53c25.07,3.83,51,2.39,76.11-.78a383.45,383.45,0,0,0,71.61-16.12,371.39,371.39,0,0,0,66.2-29.13c20.07-11.32,40.8-24.32,55.06-42.8,15.08-19.55,20.48-44.55,23.68-68.53,3.59-26.89,3.67-54.1,3.09-81.17-.5-23.05-1.13-46.2-4.6-69-3.32-21.86-9.42-43.54-20.69-62.7s-27.62-36.37-49-43.59c-23.22-7.85-49.33-3.94-72.08,3.7a144.35,144.35,0,0,0-30.25,14.7c-5.86,3.63-11.9,7-17.89,10.37-11,6.24-22.2,12.89-30.4,22.71C527,271.88,523.35,286,523.21,300.27a142.65,142.65,0,0,0,3.44,30.39c.1.47.82.27.72-.2Z"/><path class="cls-6" d="M458.38,500.24C435.88,487.5,422,454.53,419.62,429c-1.3-13.71.51-29.81,12.54-37.95,11.6-7.84,27.06-9,40.25-12.12,23.48-5.6,46.06-16.66,51.17-43.38,3.74-19.56-3-43.53,10-60.29a15.45,15.45,0,0,0,2.52-14.54c6.3-4.13,13.34-7.76,20.15-12.32a83.59,83.59,0,0,1,25.43-10.95c13.2-3.44,27.7-4.4,40.27.77,9.09,3.74,16.58,10.46,22.46,18.08,19.6,25.4,21.79,59.06,22.59,90.62.6,23.7.83,47.56-3.41,70.92-2.09,11.51-5.35,23-12,32.87s-16.38,17.52-26.5,24.19A235.37,235.37,0,0,1,506.4,513.07c-13,.56-26.3,0-38.82-3.54-.88-.25-1.73-.57-2.6-.85A13,13,0,0,0,458.38,500.24Z"/><rect class="cls-7" x="398.56" y="388.68" width="43.48" height="107.09" rx="3.95" transform="translate(457.44 1051.19) rotate(-139.95)"/><path class="cls-8" d="M420.58,471.42C420.82,488,408,500.83,396,511.73c-2.24,2-4.56,4.13-7.46,5.09-4.72,1.56-10-.13-14.8-1.81-17.69-6.14-36.06-12.71-49.49-26-7-6.89-12.23-15.26-17.12-23.71-1.45-2.5-2.91-5.14-3.11-8-.48-7,6.93-11.83,13.88-12.22s13.88,2.11,20.86,2.56c13.35.86,25.63-5.71,38.68-7.91a23.2,23.2,0,0,1,9.71,0c6.14,1.63,10.66,7.05,13.87,12.6a65.21,65.21,0,0,1,8.06,22.92,42.7,42.7,0,0,0-17.86-7.61,22,22,0,0,1,12.28,7.4c2.35,2.81,5.29,6.7,8.58,5.46,2.29-.87,2.87-3.71,3.63-6s3-4.8,5.27-3.72"/><path class="cls-9" d="M422.09,471.4c-.1,9.2-3.63,17.38-9.09,24.68a97.49,97.49,0,0,1-9.91,11.09c-3.63,3.55-7.5,8-12.1,10.26-8.73,4.33-19.85-1.63-28.06-4.67-11.13-4.11-22.16-8.85-31.76-15.91-9.83-7.23-17-16.81-23.21-27.18-4.33-7.21-8.71-15.45-.84-22,7.24-6,16.64-3.91,25.07-2.44,12,2.12,22.49-1,33.95-4.3,9.69-2.82,20.34-5.75,28.82,1.44,9.13,7.74,13.72,21.11,15.6,32.54.19,1.13-1,2.54-2.2,1.72a44.74,44.74,0,0,0-17.5-7.47l.75-2.94a24.93,24.93,0,0,1,9,4.06c2.62,1.93,5.65,7.48,8.72,8.51,4.44,1.47,5.52-11,12.08-9.47,1.91.44,1.15,3.37-.74,2.94-4.6-1.06-4.06,11.89-11.49,9.75-2.42-.7-4.18-2.95-5.77-4.75-3.55-4-7.16-6.75-12.51-8.1-1.9-.48-1.15-3.3.75-2.94A47,47,0,0,1,409.84,474l-2.2,1.72c-1.56-9.49-4.85-19.1-10.75-26.81-7.15-9.36-16.24-8.76-26.62-6-7.61,2-15.06,4.83-22.9,5.88S332.3,448,324.49,447c-4.93-.66-10-.6-14.34,2.23-6.55,4.28-4.42,10.63-1.16,16.25,5.33,9.18,11.24,18.19,19.3,25.23,7.46,6.54,16.31,11.3,25.39,15.19,8.78,3.77,19,8.6,28.53,9.83,9.81,1.26,19.09-10.46,25-17.27,6.7-7.71,11.73-16.57,11.84-27,0-1.95,3.05-2,3,0Z"/><path class="cls-9" d="M325.47,451.79c-.77-1.18-2.37-1.39-3.74-1.48l-5-.32a10.11,10.11,0,0,0-3.81.24,3.27,3.27,0,0,0-2.4,2.64,5.28,5.28,0,0,0,1.15,3.17,91,91,0,0,0,16.7,19.25,2.5,2.5,0,0,0,.67.46,2,2,0,0,0,2.18-1,8.07,8.07,0,0,0,1.06-2.57c1.9-7.35-1.23-15.94-7.52-20.65"/><path class="cls-9" d="M323.87,453.41c-1.18-1.05-5.57-1.52-7.11-1.15q-1.74-.63-2.19,1.29-1.95,1.56.27,3.13c1.63,4.41,7.15,9.31,10.47,12.63,1,1,3.12,4.23,4.79,2.31,1.24-1.42.36-6.39,0-7.93a19.21,19.21,0,0,0-6.9-10.54c-2.26-1.85.94-5.07,3.19-3.23,6.16,5,9.77,13,8.47,21-.42,2.58-1.38,6.14-4.27,6.92-3.64,1-7.11-3.95-9.2-6.1A92.86,92.86,0,0,1,310.9,459c-1.65-2.45-3.69-5.37-1.94-8.35,3-5,14.45-3.66,18.1-.43,2.19,1.94-1,5.17-3.19,3.24Z"/><path class="cls-10" d="M420.53,472c-4.23-.33-4.58,5.39-6.3,8-1.39,2.1-3.82,3.43-6.28,2.31-2.78-1.26-4.11-4.43-6.4-6.31-2.82-2.33-6.55-3.3-10.12-3.68a51.63,51.63,0,0,0-21,2.29c-3.35,1.07-6.62,2.46-10.11,3a23.23,23.23,0,0,1-8.31-.31c-6.07-1.22-12.41-4.28-18.67-2.46a.74.74,0,0,1-.38-1.42c5.38-1.56,10.84.3,16,1.66a30.9,30.9,0,0,0,8.58,1.33c3.63-.09,7.07-1.39,10.46-2.56a56.55,56.55,0,0,1,20.59-3.2,28.53,28.53,0,0,1,9.68,1.8,17.55,17.55,0,0,1,7.19,5.72c1.17,1.43,2.74,3.44,4.85,3s3-2.56,3.68-4.27c1.13-2.94,2.64-6.73,6.46-6.43.93.07,1,1.53,0,1.46Z"/><path class="cls-10" d="M386.6,470.6c5.61-7.14,16.34-.21,22.33,2.61l-1.09.85c-.57-2.56-2.25-4.85-3.32-7.23s-1.93-4.66-2.86-7c-2-5.11-4.37-10.37-8.47-14.19a17.72,17.72,0,0,0-12.64-4.76,21.06,21.06,0,0,0-7,1.74,58.93,58.93,0,0,1-7.65,2c-6,1.47-11.51,4.12-17,6.77-.87.41-1.63-.89-.75-1.3a98.76,98.76,0,0,1,15.65-6.46c2.77-.79,5.68-1.13,8.4-2.1a30.9,30.9,0,0,1,7.14-2.08,19,19,0,0,1,12.8,3.38c4.66,3.32,7.55,8.44,9.75,13.6,1.27,3,2.36,6,3.64,8.94,1.2,2.74,3.13,5.36,3.78,8.29a.76.76,0,0,1-1.09.85c-3.52-1.66-7-3.64-10.75-4.8-3.36-1.05-7.42-1.08-9.79,1.93-.59.76-1.66-.3-1.06-1Z"/><path class="cls-10" d="M351.54,449.26a144.21,144.21,0,0,1-21.5-.12c-3.34-.27-6.65-.75-10-1.08a22.5,22.5,0,0,0-8.88.43c-7.31,2.29-6.89,10.77-4,16.41a64.37,64.37,0,0,0,5.72,8.74,68.07,68.07,0,0,0,7.55,9c5.35,5.18,11.75,9.3,18.06,13.21a170.23,170.23,0,0,0,18.46,10,130.67,130.67,0,0,0,19.81,7.3c3.18.88,6.51,1.89,9.83,1.9,3.61,0,6.62-1.78,9.29-4.06,6.12-5.23,11.09-12,15.8-18.52,4.4-6.05,8.23-12.62,9.37-20.12.15-1,1.63-.59,1.48.38-1.06,7-4.42,13.25-8.43,19a137.42,137.42,0,0,1-14,17.43c-2.45,2.5-5.2,5.07-8.48,6.45-3.1,1.31-6.4,1.11-9.64.45a116.36,116.36,0,0,1-20.75-6.65,160.31,160.31,0,0,1-20.27-10.23,134.24,134.24,0,0,1-19.19-13.22A75,75,0,0,1,307,467.77c-3.12-5.18-5.35-12.59-.93-17.76,4.73-5.55,13.44-3.5,19.69-2.81a145.32,145.32,0,0,0,25.8.53c1-.07,1,1.46,0,1.53Z"/><path class="cls-10" d="M324.38,446.77c5,2.76,8.14,7.94,9.68,13.34,1.61,5.6,1.71,11.62-1.15,16.83a.78.78,0,0,1-1.37-.76c2.67-4.87,2.5-10.45,1-15.67-1.43-5-4.27-9.81-8.94-12.37a.79.79,0,0,1,.77-1.37Z"/><path class="cls-10" d="M334.16,473.36a17,17,0,0,1-3.3,6.68c-1.65,2.14-3.45,4.17-5.19,6.23-.63.75-1.7-.32-1.08-1.06,1.62-1.93,3.29-3.83,4.86-5.81a15.9,15.9,0,0,0,3.24-6.41.76.76,0,0,1,1.47.37Z"/><path class="cls-10" d="M332.36,477.52c3.56,3.72,8,6.33,12.43,8.83q6.24,3.51,12.68,6.63a157.69,157.69,0,0,0,26.61,10.15c5.06,1.39,10.34,2.78,15.63,2.69a.76.76,0,0,1,0,1.52c-4.69.07-9.33-1-13.85-2.17a137.63,137.63,0,0,1-14-4.4,194.14,194.14,0,0,1-26.28-12.24c-5.08-2.81-10.24-5.69-14.29-9.93-.67-.7.39-1.78,1.06-1.08Z"/><path class="cls-10" d="M335.09,480.86c.13,1.69-.79,3.22-1.63,4.61a38.25,38.25,0,0,1-3.38,4.72c-.64.76-1.73-.33-1.1-1.09a34.91,34.91,0,0,0,3-4.22c.74-1.2,1.65-2.54,1.54-4-.08-1,1.47-1,1.54,0Z"/><path class="cls-10" d="M339.67,485.68a27.52,27.52,0,0,1-5.47,7c-.73.67-1.83-.41-1.1-1.09a26.34,26.34,0,0,0,5.22-6.66.77.77,0,0,1,1.35.75Z"/><path class="cls-10" d="M345.16,488a13.8,13.8,0,0,1-5.51,9,.78.78,0,0,1-.78-1.34,12.22,12.22,0,0,0,4.79-8,.77.77,0,0,1,.94-.56.79.79,0,0,1,.56.94Z"/><path class="cls-10" d="M349.58,490.65a19.31,19.31,0,0,1-4.72,8.48c-.69.72-1.79-.36-1.1-1.08a17.73,17.73,0,0,0,4.32-7.78.77.77,0,0,1,1.5.38Z"/><path class="cls-10" d="M355,493.58a19.09,19.09,0,0,1-6.22,9,.79.79,0,0,1-1.09,0,.77.77,0,0,1,0-1.09,17.55,17.55,0,0,0,5.82-8.31c.31-.95,1.81-.57,1.5.38Z"/><path class="cls-10" d="M361.19,495.8c-.62,4.11-3.29,7.44-5.86,10.54-.64.76-1.74-.33-1.1-1.09,2.41-2.9,4.89-6,5.46-9.83.14-1,1.64-.6,1.5.38Z"/><path class="cls-10" d="M367.19,499a24,24,0,0,1-5.58,9.66c-.68.72-1.78-.36-1.1-1.09a22.3,22.3,0,0,0,5.19-8.95c.28-.95,1.78-.57,1.49.38Z"/><path class="cls-10" d="M374,501.73a50.08,50.08,0,0,1-6.65,9.44c-.66.74-1.76-.34-1.1-1.08a48.11,48.11,0,0,0,6.41-9.11.77.77,0,0,1,1.34.75Z"/><path class="cls-10" d="M379.13,503.8a8.75,8.75,0,0,0-1.38,2.34,16.72,16.72,0,0,1-1.35,2.5,15.26,15.26,0,0,1-3.93,4c-.81.57-1.58-.77-.77-1.34a13,13,0,0,0,3.67-3.87c.94-1.53,1.42-3.32,2.66-4.67.67-.74,1.77.35,1.1,1.08Z"/><path class="cls-10" d="M384.41,504.38c-.93,3.74-3.5,6.69-6,9.49-.66.74-1.76-.35-1.1-1.08,2.34-2.6,4.76-5.32,5.63-8.79a.77.77,0,0,1,1.49.38Z"/><path class="cls-10" d="M390.18,507c-1.06,1.17-1.4,2.88-2.17,4.24a14.22,14.22,0,0,1-3.26,3.9.79.79,0,0,1-1.09,0,.78.78,0,0,1,0-1.09,13,13,0,0,0,3.19-3.89c.76-1.42,1.13-3,2.24-4.25.67-.74,1.77.35,1.1,1.08Z"/><path class="cls-10" d="M395.41,507.53a25.08,25.08,0,0,1-6.67,8.58.81.81,0,0,1-1.1,0,.78.78,0,0,1,0-1.1,23.81,23.81,0,0,0,6.42-8.24c.43-.9,1.77-.14,1.35.75Z"/><path class="cls-10" d="M309.73,448.44c-1.47,2.7-.32,5.9,1,8.42a49.68,49.68,0,0,0,6.05,9.06,55.3,55.3,0,0,0,16.74,13.63c.88.46.12,1.81-.75,1.35a56.93,56.93,0,0,1-18.25-15.33,43.32,43.32,0,0,1-5.85-9.49c-1.14-2.68-1.73-5.71-.27-8.39a.77.77,0,0,1,1.35.75Z"/><path class="cls-10" d="M325.65,476.57a59.55,59.55,0,0,1-5,6.12c-.68.73-1.78-.36-1.1-1.09a55.6,55.6,0,0,0,4.72-5.78.81.81,0,0,1,1.06-.3.77.77,0,0,1,.29,1.05Z"/><path class="cls-10" d="M320.37,471.47c.55,1.15-.49,2.2-1.16,3a22.22,22.22,0,0,1-2.49,2.64.78.78,0,0,1-1.09,0,.77.77,0,0,1,0-1.09,22.24,22.24,0,0,0,2.13-2.21c.3-.35.58-.71.85-1.09.13-.17.24-.35.36-.53s0,.08,0-.09,0,0,0,.1a.8.8,0,0,1,.29-1.06.79.79,0,0,1,1.05.28Z"/><path class="cls-10" d="M317.06,468.1a24.07,24.07,0,0,1-5,4.09c-.85.52-1.62-.82-.78-1.34A21.91,21.91,0,0,0,316,467c.68-.73,1.78.36,1.1,1.09Z"/><path class="cls-10" d="M313.64,464a11.8,11.8,0,0,1-5.16,4,.79.79,0,0,1-1-.55.8.8,0,0,1,.55-.95,9.88,9.88,0,0,0,4.21-3.24.8.8,0,0,1,1-.3.79.79,0,0,1,.3,1.05Z"/><path class="cls-10" d="M310.56,459.8a18.48,18.48,0,0,1-4.17,2.58.77.77,0,0,1-1.05-.28.76.76,0,0,1,.28-1.05,20,20,0,0,0,2.05-1.08c.32-.19.63-.4.93-.61s.33-.23.49-.35c0,0,.19-.15.11-.08l.26-.21a.79.79,0,0,1,1.1,0,.78.78,0,0,1,0,1.09Z"/><path class="cls-10" d="M308.38,456.33l-.25.09s-.23.09-.06,0l-.42.19a6.28,6.28,0,0,0-.78.48,1,1,0,0,0-.16.12c.15-.13-.07,0-.09.07l-.34.31c-.11.11-.21.22-.31.34a.86.86,0,0,0-.13.14l-.08.1a.87.87,0,0,1-.47.37.89.89,0,0,1-.58-.07.8.8,0,0,1-.3-1.06,7.27,7.27,0,0,1,3.56-2.59.78.78,0,0,1,.95.54.79.79,0,0,1-.54.95Z"/><path class="cls-9" d="M369.12,445.84c3,4.12,2.07,9.49,2.55,14.25.51,5,2.87,9,6.21,12.75,2.7,3,7.44,5.63,11,2.26,3.94-3.74-.18-8.59-3.31-11.07-7.37-5.86-18-10.86-19.73-21.15-.74-4.38.7-9.34,5-11.34,1-.47,4.4-1.4,4.73.13a6.77,6.77,0,0,1-.22,1.94l-.24,1.83c-.18,1.39-.38,2.78-.6,4.16a78,78,0,0,1-1.87,9c-.8,2.89-1.79,5.74-2.36,8.69-.88,4.5-1.3,12.47,3.95,14.53,2,.79,2.8-2.45.82-3.23-.87-.34-1.24-1.83-1.47-2.61a13.9,13.9,0,0,1-.48-3.9,28.86,28.86,0,0,1,1.33-7.71A120.73,120.73,0,0,0,378,438.87c.35-2.39,1-5,.92-7.46s-1.86-3.45-3.94-3.75c-4.06-.58-7.93,1.64-10.25,4.87-2.68,3.76-2.89,8.81-1.61,13.12a25.6,25.6,0,0,0,7.94,11.6c3.76,3.34,8.1,5.93,12,9,1.52,1.19,4.19,3,4.05,5.24-.11,2-2.65,2.05-4,1.37-2.2-1.09-4-3.53-5.32-5.5a15.69,15.69,0,0,1-2.79-7.62c-.49-5.3.31-11.08-3-15.67-1.25-1.73-4.11,0-2.85,1.74Z"/><path class="cls-9" d="M371.2,455q-4.26-1.27-8.46-2.73a1.67,1.67,0,0,0-2,1.2,1.71,1.71,0,0,0,1.21,2q4.2,1.46,8.46,2.74a1.68,1.68,0,0,0,2-1.21,1.71,1.71,0,0,0-1.21-2Z"/><path class="cls-9" d="M371.08,454.55a16.73,16.73,0,0,0-7.94,7.45c-2,3.48-3.15,7.77-1.2,11.52a1.69,1.69,0,0,0,2.29.56,1.71,1.71,0,0,0,.55-2.3c-1.38-2.66,0-6,1.4-8.38a13,13,0,0,1,5.85-5.65,1.72,1.72,0,0,0,1.12-2.08,1.67,1.67,0,0,0-2.07-1.12Z"/><path class="cls-11" d="M392,487.61a29,29,0,0,0-4.07-1.32,8.45,8.45,0,0,1,7-.13,9,9,0,0,1,4.15,3.43c.15.25.31.33.53.26s.27-.23.16-.5a9.63,9.63,0,0,0-5.48-5.36,9,9,0,0,0-9.63,1.68,16.73,16.73,0,0,0-3.28-.11c-.28,0-.42.13-.41.34s.16.32.42.36c.8.11,1.61.26,2.45.43a5.61,5.61,0,0,0-.59,1.08,7.83,7.83,0,0,0,1.29,7.87c.18.22.38.3.58.2s.24-.26.1-.5a6.66,6.66,0,0,1-.42-5.69,6.08,6.08,0,0,1,1.6-2.29c.8.26,1.66.57,2.59.95,6.05,2.48,10.43,6.35,9.49,8.68-.47,1.18-2.62,1.67-4.93,1.64-.56,0-.66.11-.67.32s.19.35.46.38c3.9.41,7.21-.18,8-2.21C402.41,494.37,398.28,490.2,392,487.61Z"/><path class="cls-11" d="M384.51,496.26a1.3,1.3,0,0,1-.42-.35,8.2,8.2,0,0,1-1.35-8.33q.12-.29.27-.57c-.62-.12-1.19-.22-1.74-.29a.91.91,0,0,1-.85-.8c0-.37.19-.77.83-.82a17,17,0,0,1,3.15.08,9.52,9.52,0,0,1,10-1.61,10,10,0,0,1,5.77,5.63.73.73,0,0,1-.43,1.08.88.88,0,0,1-1.12-.47,8.59,8.59,0,0,0-3.91-3.23,8.34,8.34,0,0,0-5.29-.36c1,.28,1.88.61,2.74,1h0c6.69,2.75,10.82,7.1,9.61,10.13-.83,2.06-3.93,3-8.51,2.48a.9.9,0,0,1-.91-.86c0-.77.83-.76,1.13-.76,2.39,0,4.16-.5,4.5-1.36.72-1.78-2.81-5.45-9.21-8.07-.72-.3-1.45-.57-2.28-.85a5.68,5.68,0,0,0-1.29,1.94,6.22,6.22,0,0,0,.39,5.3.75.75,0,0,1-.28,1.12A.85.85,0,0,1,384.51,496.26Zm.06-9.87-.39.57a4.92,4.92,0,0,0-.55,1,7.23,7.23,0,0,0,.63,6.56,7.11,7.11,0,0,1,0-5.06A6.5,6.5,0,0,1,386,487l.2-.18.27.08c1,.32,1.81.63,2.64,1,7.52,3.09,10.64,7.1,9.76,9.29-.47,1.17-2,1.64-3.42,1.82,2.91,0,4.88-.72,5.41-2.05,1-2.46-3.07-6.45-9.05-8.91h0a28.79,28.79,0,0,0-4-1.29l-1.25-.3,1.11-.56a9,9,0,0,1,7.37-.15,9.79,9.79,0,0,1,3.71,2.7,9.24,9.24,0,0,0-4.68-4A8.51,8.51,0,0,0,385,486l-.16.16-.24,0a17.71,17.71,0,0,0-2-.14c.41.07.83.15,1.29.25Zm14.9,3.05Z"/><path class="cls-12" d="M619.33,399.6c1.16-1.9-7.72-9.37-22-21L585.63,369c-4.32-3.45-9.44-7.57-16.54-10.26a40.8,40.8,0,0,0-23.17-1.55,39,39,0,0,0-11.73,4.7,31.12,31.12,0,0,0-10,9.58,20.94,20.94,0,0,0-2,3.68,14.09,14.09,0,0,0-1.06,5.77,12,12,0,0,0,2.58,7,10.77,10.77,0,0,0,5.73,3.79,11.43,11.43,0,0,0,2.3.35,12.17,12.17,0,0,0,6.64-1.74c1.28-.74,2-1.26,2.34-1.48.16-.1.25-.15.14-.1a2.34,2.34,0,0,1-.4.1c-.26,0-.28,0,0,0a29.71,29.71,0,0,1,3.76,1c1,.28,2.14.51,3.21.71s2.15.29,3.16.33a54.89,54.89,0,0,0,10.76-.67,77.58,77.58,0,0,1,8.06-.89,19.13,19.13,0,0,1,6.24.71c4.1,1.16,8.23,3.57,12.21,5.89a70.51,70.51,0,0,0,11.91,6,28.58,28.58,0,0,0,10.5,1.92,14,14,0,0,0,6.66-1.61c1.37-.8,1.89-1.58,1.72-2.07-.37-1.14-3.28-.86-7.58-2.41a35.14,35.14,0,0,1-7.47-3.78,102.57,102.57,0,0,1-9.39-7.21c-3.67-2.91-8-6.46-14.18-9a31.71,31.71,0,0,0-10.36-2.26,77.72,77.72,0,0,0-9.84.31,46.17,46.17,0,0,1-8.08.11c-.59-.05-1.11-.17-1.64-.26s-1-.22-1.56-.42a37.81,37.81,0,0,0-5.82-1.62,14.9,14.9,0,0,0-5,0,12.88,12.88,0,0,0-2.82.82,16.61,16.61,0,0,0-2.12,1.06c-1.09.65-1.79,1.13-2,1.23l-.05,0h0s0,0,.07.15l.38.81a19,19,0,0,1,.8,1.93,6.9,6.9,0,0,1,.29,1.17,1.6,1.6,0,0,1,0,.42s0,.08,0,0v-.07h0c.1-.35-.12.48-.1.39s0,0,.06-.13a2,2,0,0,1,.53-.59,1.9,1.9,0,0,1,.53-.32h0l-.11,0H533l1,0a5.86,5.86,0,0,1,1.33.14,11.49,11.49,0,0,1,1.13.3l.34.11c.08,0,0,0,0,0v0a7.19,7.19,0,0,1,.56-1c2.3-3.64,7.13-6.55,12.1-7.81a27.92,27.92,0,0,1,14.84.25c4.57,1.34,9.08,4.16,13.57,7.09s9,5.78,13,8.15C607.22,397.3,618.24,401.43,619.33,399.6Z"/><path class="cls-13" d="M554.9,273.77c-1.34.24-14.22,5.65-20.08,8.13a8.37,8.37,0,0,0-4.25,4l-28.74,58,22.23,15.38s-2.61,45.3,3.11,47.59c2.14.86,79.82.71,79.82.71s8.39,3,11.4,0c2.32-2.29,1.42-6.76,1.42-6.76l0-94.54,4.2-26S584,268.64,554.9,273.77Z"/><path class="cls-11" d="M538.63,298.92a309.56,309.56,0,0,0-11.14,44.41q-1.12,6.56-2,13.16c-.13,1-1.7,1-1.57,0a310.85,310.85,0,0,1,9.31-45.42q1.8-6.33,3.87-12.57c.31-.95,1.83-.55,1.51.42Z"/><g class="cls-14"><path d="M528.27,378.06c1.74-5.29,6.16-9.42,11.23-11.73s10.76-2.94,16.32-2.86c9.71.13,19.51,2.45,27.71,7.63,12.29,7.78,20.52,21.56,34,26.94l1.66,2.37a55.15,55.15,0,0,1-30.14-7.2c-5.94-3.41-11.31-8-17.79-10.17-5.73-2-11.91-1.92-18-1.87-5.72.05-11.81.21-16.54,3.4-1.41.95-2.77,2.19-4.46,2.29a4.6,4.6,0,0,1-4.29-3.18A8.81,8.81,0,0,1,528.27,378.06Z"/></g><rect class="cls-7" x="437.32" y="524" width="28.01" height="59.24" rx="4.5" transform="translate(815.45 1168.11) rotate(-171.46)"/><path class="cls-8" d="M463.41,567.44c8.82,10.25,7.5,25,5.7,38.12-.34,2.45-.7,5-2,7.1-2.14,3.44-6.32,5.14-10.23,6.61-14.3,5.4-29.25,10.91-44.63,9.6-8-.67-15.65-3.17-23.14-5.9-2.22-.81-4.51-1.7-6.12-3.38-4-4.12-1.85-11,2.31-14.92s9.8-5.94,14.41-9.31c8.82-6.45,13.08-17,20.11-25.2a18.79,18.79,0,0,1,6.11-5.06c4.7-2.19,10.37-1.15,15.29.64a53.43,53.43,0,0,1,17.05,10.15,34.81,34.81,0,0,0-15.18,4.58,17.93,17.93,0,0,1,11.57-1.79c2.94.54,6.82,1.43,8.23-1.07,1-1.74-.14-3.83-.88-5.68s-.64-4.58,1.36-5.1"/><path class="cls-9" d="M464.35,566.64c4.75,5.82,6.82,12.79,7.21,20.22a79.53,79.53,0,0,1-.4,12.15c-.42,4.12-.53,8.91-2.22,12.76-3.2,7.28-13.3,9.37-20,11.76-9.13,3.24-18.52,6-28.24,6.64-9.94.62-19.45-1.65-28.78-4.89-6.48-2.25-13.54-5.12-12-13.34,1.39-7.57,8.39-11.16,14.44-14.64,8.66-5,13.59-12.38,19-20.47,4.6-6.84,9.74-14.25,18.82-14.18,9.77.07,19.65,6.05,26.81,12.23.71.61.69,2.13-.48,2.23a36.75,36.75,0,0,0-14.88,4.47l-1.07-2.23a20.52,20.52,0,0,1,7.74-2.14c2.66-.16,7.46,1.73,9.92.77,3.56-1.4-2.28-9.77,2.62-12.26a1.24,1.24,0,0,1,1.07,2.23c-3.44,1.74,3.68,9.58-2.09,12.12-1.89.84-4.18.35-6.11,0-4.32-.66-8-.49-12.08,1.46a1.24,1.24,0,0,1-1.07-2.23A38.42,38.42,0,0,1,458,574.68l-.48,2.23c-5.95-5.13-13-9.44-20.77-11.19-9.38-2.12-14.77,3-19.82,10.19-3.7,5.26-6.91,10.91-11.28,15.67s-9.86,7.39-15.3,10.82c-3.44,2.16-6.6,4.87-7.83,8.9-1.86,6.11,2.8,9,7.78,10.8,8.15,3,16.57,5.51,25.3,5.72,8.11.19,16.14-1.46,23.87-3.77,7.48-2.23,16.4-4.54,23-8.77,6.81-4.34,6.48-16.54,6.63-23.92.17-8.33-1.32-16.52-6.7-23.12-1-1.24.87-2.84,1.88-1.6Z"/><path class="cls-9" d="M393.51,604.91c-1.09-.34-2.21.36-3.12,1l-3.28,2.41a8.29,8.29,0,0,0-2.27,2.14,2.7,2.7,0,0,0-.13,2.91,4.34,4.34,0,0,0,2.39,1.38,74.14,74.14,0,0,0,20.54,3.33,1.87,1.87,0,0,0,.67-.06,1.59,1.59,0,0,0,.84-1.76,7.08,7.08,0,0,0-.68-2.18,16.63,16.63,0,0,0-15.52-9"/><path class="cls-9" d="M393.36,606.76c-1.29,0-4.29,2-5.06,3-.95.34-1.18,1-.7,2-.27,1.33.33,1.94,1.81,1.82,3.33,1.91,9.36,2.09,13.17,2.44,1.17.1,4.17,1,4.21-1.07,0-1.53-3.11-4.19-4.15-5a15.77,15.77,0,0,0-9.84-3c-2.39,0-2.07-3.66.3-3.69A18.67,18.67,0,0,1,409.43,612c1.09,1.84,2.35,4.57.94,6.57-1.77,2.51-6.52,1.24-9,1A76,76,0,0,1,388.13,617c-2.32-.67-5.13-1.43-5.59-4.22-.79-4.71,7.14-9.85,11.12-9.74,2.39.07,2.08,3.77-.3,3.7Z"/><path class="cls-10" d="M463.69,567.83c-2.83,2-.06,5.78.23,8.32.24,2-.59,4.15-2.71,4.73-2.41.66-4.9-.62-7.33-.61a15.59,15.59,0,0,0-8.27,3,42.24,42.24,0,0,0-11.95,12.42,55.59,55.59,0,0,1-4.76,7.19,18.92,18.92,0,0,1-5.37,4.15c-4.44,2.41-10,3.82-13,8.22a.6.6,0,0,1-1-.68c2.56-3.8,6.95-5.49,10.93-7.36a25.49,25.49,0,0,0,6.07-3.66c2.23-1.95,3.71-4.57,5.22-7.07A46.14,46.14,0,0,1,443,583.68a23.34,23.34,0,0,1,7-3.94,14.46,14.46,0,0,1,7.5-.18c1.49.29,3.52.73,4.64-.63s.55-3.19.07-4.6c-.83-2.43-1.86-5.6.68-7.41.63-.45,1.4.46.78.91Z"/><path class="cls-10" d="M441.68,584.71c-.22-7.41,10.14-8.69,15.37-10.05l-.24,1.1c-1.7-1.31-3.95-1.86-5.87-2.8s-3.64-1.9-5.45-2.88c-4-2.14-8.17-4.22-12.74-4.47a14.44,14.44,0,0,0-10.41,3.63,17.06,17.06,0,0,0-3.49,4.76,49.74,49.74,0,0,1-3.74,5.27A72.22,72.22,0,0,0,408,592.41c-.32.71-1.48.3-1.15-.42a81.59,81.59,0,0,1,6.44-12.24c1.32-2,3-3.68,4.16-5.71a24.32,24.32,0,0,1,3.39-5,15.6,15.6,0,0,1,9.79-4.59c4.66-.35,9.16,1.35,13.24,3.43,2.34,1.19,4.61,2.52,7,3.7,2.18,1.09,4.76,1.72,6.7,3.22a.62.62,0,0,1-.24,1.1,70.18,70.18,0,0,0-9.25,2.62c-2.66,1.1-5.21,3.2-5.12,6.33,0,.79-1.2.68-1.22-.1Z"/><path class="cls-10" d="M408.54,589.68A119.89,119.89,0,0,1,395,600.86c-2.23,1.58-4.56,3-6.82,4.55a18.22,18.22,0,0,0-5.35,4.92c-3.39,5.25,1.32,10.35,6.06,12.39a52.64,52.64,0,0,0,8.16,2.49,55.66,55.66,0,0,0,9.42,1.67c6.07.44,12.24-.32,18.24-1.17a139.07,139.07,0,0,0,16.79-3.4,107.19,107.19,0,0,0,16.25-5.79,31.2,31.2,0,0,0,7.15-4c2.27-1.88,3.22-4.57,3.7-7.4,1.1-6.49.65-13.35.22-19.88-.41-6.1-1.45-12.22-4.66-17.52-.42-.69.71-1.22,1.13-.54,3,4.93,4.16,10.62,4.64,16.31a112.49,112.49,0,0,1,.34,18.26,22.49,22.49,0,0,1-1.94,8.48,13,13,0,0,1-5.81,5.32,94,94,0,0,1-16.49,6.7A131.37,131.37,0,0,1,428,626.48,109.61,109.61,0,0,1,409,628.24a61.62,61.62,0,0,1-18.73-3.63c-4.67-1.62-9.94-5.09-9.88-10.65.06-6,6.6-9.23,10.87-12.06a118.57,118.57,0,0,0,16.46-13.18c.58-.56,1.39.4.81,1Z"/><path class="cls-10" d="M390.2,602.34c4.61-.91,9.26.71,13.05,3.28s7.16,6.4,8.09,11.16a.64.64,0,0,1-1.26.24c-.87-4.45-3.9-7.86-7.56-10.35-3.51-2.39-7.81-3.92-12.08-3.08a.64.64,0,0,1-.24-1.25Z"/><path class="cls-10" d="M410.25,613.89a13.71,13.71,0,0,1,1.42,5.91c.09,2.2,0,4.42,0,6.62,0,.8-1.24.69-1.24-.1,0-2.06.06-4.12,0-6.18a13,13,0,0,0-1.32-5.72c-.37-.71.75-1.24,1.11-.53Z"/><path class="cls-10" d="M411.3,617.43c4.18.48,8.32-.2,12.42-1q5.75-1.07,11.42-2.48a127.48,127.48,0,0,0,22-7.56c3.9-1.78,7.94-3.67,11.2-6.49a.62.62,0,0,1,.8.94,43,43,0,0,1-9.81,5.89,111.23,111.23,0,0,1-11.08,4.57,158.49,158.49,0,0,1-22.89,6.08c-4.65.9-9.4,1.79-14.15,1.26-.79-.09-.69-1.33.1-1.24Z"/><path class="cls-10" d="M414.76,618.1a6.52,6.52,0,0,1,1.39,3.74,31.28,31.28,0,0,1,.35,4.73c0,.81-1.26.7-1.26-.11a28.47,28.47,0,0,0-.31-4.23,5.82,5.82,0,0,0-1.13-3.32c-.57-.58.4-1.39,1-.81Z"/><path class="cls-10" d="M420.15,618.72a22.34,22.34,0,0,1,.23,7.25c-.1.8-1.36.7-1.25-.1a21.37,21.37,0,0,0-.22-6.91.63.63,0,0,1,1.24-.24Z"/><path class="cls-10" d="M424.81,617.3a11.29,11.29,0,0,1,1.24,8.52.63.63,0,0,1-.81.37.64.64,0,0,1-.37-.81,10,10,0,0,0-1.2-7.53.62.62,0,0,1,.3-.84.64.64,0,0,1,.84.29Z"/><path class="cls-10" d="M429,616.65a16,16,0,0,1,1.48,7.79.63.63,0,0,1-1.26-.1,14.53,14.53,0,0,0-1.36-7.14.63.63,0,0,1,1.14-.55Z"/><path class="cls-10" d="M433.92,615.63a15.52,15.52,0,0,1,.82,8.91.66.66,0,0,1-.68.58.63.63,0,0,1-.57-.68,14.43,14.43,0,0,0-.71-8.27c-.29-.75.84-1.3,1.14-.54Z"/><path class="cls-10" d="M438.94,613.81c1.77,2.89,1.83,6.38,1.84,9.67,0,.81-1.26.7-1.26-.1,0-3.09-.07-6.32-1.72-9-.43-.69.72-1.23,1.14-.54Z"/><path class="cls-10" d="M444.38,612.67a19.6,19.6,0,0,1,1.55,9,.63.63,0,0,1-1.25-.11,18.31,18.31,0,0,0-1.44-8.33c-.32-.74.82-1.29,1.14-.54Z"/><path class="cls-10" d="M450.1,610.8a41.18,41.18,0,0,1,.77,9.4c0,.81-1.29.71-1.26-.1a39.43,39.43,0,0,0-.75-9.07.63.63,0,0,1,1.24-.23Z"/><path class="cls-10" d="M454.37,609.43a7.14,7.14,0,0,0,.37,2.19,13.53,13.53,0,0,1,.45,2.28,12.36,12.36,0,0,1-.38,4.53c-.22.78-1.4.35-1.19-.43a10.82,10.82,0,0,0,.28-4.35c-.21-1.45-.85-2.83-.78-4.32,0-.81,1.29-.71,1.25.1Z"/><path class="cls-10" d="M458,607c1.37,2.84,1.31,6,1.19,9.1,0,.81-1.29.71-1.26-.1.11-2.85.2-5.82-1.07-8.45A.63.63,0,0,1,458,607Z"/><path class="cls-10" d="M463,605.64c-.06,1.29.63,2.54.86,3.79a11.81,11.81,0,0,1,0,4.15.64.64,0,0,1-.68.58.63.63,0,0,1-.57-.68,10.87,10.87,0,0,0,0-4.1,15.49,15.49,0,0,1-.82-3.84c0-.81,1.29-.71,1.26.1Z"/><path class="cls-10" d="M466.53,603.25a20.43,20.43,0,0,1,.31,8.87.66.66,0,0,1-.68.58.64.64,0,0,1-.58-.68,19.54,19.54,0,0,0-.29-8.54c-.2-.78,1-1,1.24-.23Z"/><path class="cls-10" d="M381.9,611.05c.48,2.46,2.88,3.86,5,4.77a41.65,41.65,0,0,0,8.54,2.51,45.43,45.43,0,0,0,17.62-.22.63.63,0,0,1,.24,1.24,46.42,46.42,0,0,1-19.46-.07,35.52,35.52,0,0,1-8.64-2.87c-2.11-1.09-4.07-2.68-4.55-5.13a.63.63,0,0,1,1.24-.23Z"/><path class="cls-10" d="M406.6,620.35a47.72,47.72,0,0,1,.08,6.44c0,.81-1.3.7-1.26-.11a44.36,44.36,0,0,0-.06-6.1.63.63,0,0,1,1.24-.23Z"/><path class="cls-10" d="M400.62,619.92c.94.43.84,1.63.86,2.51a18.32,18.32,0,0,1-.18,3,.63.63,0,0,1-1.26-.1,19.12,19.12,0,0,0,.19-2.5c0-.38,0-.76,0-1.13a4.35,4.35,0,0,0-.06-.52c0-.15,0,.05,0-.08s0,0,.08,0a.65.65,0,0,1-.38-.81.63.63,0,0,1,.81-.37Z"/><path class="cls-10" d="M396.78,619.53a19.23,19.23,0,0,1-1,5.16c-.25.77-1.44.34-1.18-.43a18.08,18.08,0,0,0,.9-4.83c0-.81,1.3-.71,1.26.1Z"/><path class="cls-10" d="M392.46,618.73a9.59,9.59,0,0,1-1.15,5.19.64.64,0,0,1-.88.16.66.66,0,0,1-.15-.88,8,8,0,0,0,.94-4.24.64.64,0,0,1,.5-.73.63.63,0,0,1,.74.5Z"/><path class="cls-10" d="M388.36,617.73a15.5,15.5,0,0,1-1.26,3.81.65.65,0,0,1-.81.37.64.64,0,0,1-.38-.81,15.75,15.75,0,0,0,.73-1.75c.09-.28.18-.57.26-.87A3.59,3.59,0,0,0,387,618s.05-.2,0-.11a2.56,2.56,0,0,0,.05-.27.66.66,0,0,1,.69-.58.64.64,0,0,1,.57.68Z"/><path class="cls-10" d="M385.17,616.7l-.11.19,0,0c-.06.11-.11.23-.16.34a4.56,4.56,0,0,0-.24.71.75.75,0,0,0,0,.16c0-.16,0,.06,0,.09s0,.25-.05.37,0,.25,0,.38v.16s0,.26,0,.09a.68.68,0,0,1-.11.48.58.58,0,0,1-.4.26.63.63,0,0,1-.73-.5,6,6,0,0,1,.87-3.49.64.64,0,0,1,.88-.16.65.65,0,0,1,.15.88Z"/><path class="cls-9" d="M432.28,589c-3.2-2.64-7.62-2.17-11.48-2.81-4.08-.68-7.22-2.8-10.07-5.72-2.3-2.35-4.21-6.35-1.28-9.07,3.25-3,7,.59,8.86,3.26,4.39,6.32,7.92,15.21,16.22,17.17,3.53.84,7.64-.09,9.49-3.47.44-.79,1.38-3.51.14-3.86a5.69,5.69,0,0,0-1.59.08l-1.5.1c-1.14.08-2.29.17-3.43.27a63.71,63.71,0,0,0-7.4,1.07c-2.4.5-4.77,1.16-7.2,1.47-3.72.49-10.23.42-11.65-4-.53-1.66,2.15-2.15,2.68-.5.24.73,1.43,1.11,2.05,1.33a11.33,11.33,0,0,0,3.16.6,23.48,23.48,0,0,0,6.35-.69,98.84,98.84,0,0,1,12.79-2.1,35,35,0,0,1,6.13-.36c1.85.2,2.71,1.69,2.85,3.41a9,9,0,0,1-4.5,8.09c-3.2,2-7.32,1.9-10.78.64a20.9,20.9,0,0,1-9-7.07c-2.53-3.23-4.41-6.9-6.74-10.28-.89-1.29-2.25-3.56-4-3.57s-1.81,2.06-1.33,3.2c.77,1.85,2.67,3.42,4.21,4.63a12.91,12.91,0,0,0,6.06,2.66c4.3.67,9,.32,12.62,3.26,1.34,1.11-.21,3.35-1.57,2.23Z"/><path class="cls-9" d="M424.9,586.82c.55,2.36,1.15,4.7,1.79,7a1.37,1.37,0,0,1-1.09,1.59,1.4,1.4,0,0,1-1.59-1.09q-1-3.5-1.79-7a1.38,1.38,0,0,1,1.09-1.59,1.4,1.4,0,0,1,1.59,1.09Z"/><path class="cls-9" d="M425.29,587a13.71,13.71,0,0,1-6.48,6.08c-2.94,1.43-6.5,2.17-9.46.39a1.38,1.38,0,0,1-.33-1.9,1.4,1.4,0,0,1,1.9-.33c2.1,1.26,4.9.29,6.9-.71a10.6,10.6,0,0,0,4.91-4.47,1.41,1.41,0,0,1,1.75-.81,1.38,1.38,0,0,1,.81,1.75Z"/><path class="cls-11" d="M453.82,592.8a23.9,23.9,0,0,0-2.88,2,6.91,6.91,0,0,1,3.38-4.57,7.36,7.36,0,0,1,4.29-1c.24,0,.37,0,.43-.22s0-.29-.24-.35a7.85,7.85,0,0,0-6.2.89,7.32,7.32,0,0,0-3.71,7.06,14.25,14.25,0,0,0-1.7,2.08c-.13.19-.12.34,0,.43a.33.33,0,0,0,.44-.09c.47-.47,1-.92,1.5-1.38a4.18,4.18,0,0,0,.41.92,6.36,6.36,0,0,0,5.73,3.08c.23,0,.39-.09.42-.27s0-.28-.28-.32a5.41,5.41,0,0,1-3.89-2.56,5,5,0,0,1-.69-2.17c.57-.39,1.2-.79,1.91-1.21,4.61-2.68,9.3-3.59,10.34-1.82.53.89-.22,2.53-1.39,4-.28.36-.26.48-.12.6s.31.05.47-.12c2.21-2.32,3.47-4.76,2.56-6.29C463.39,589.41,458.64,590,453.82,592.8Z"/><path class="cls-11" d="M455.71,601.94a1.06,1.06,0,0,1-.43.09,6.69,6.69,0,0,1-6.07-3.27,2.84,2.84,0,0,1-.24-.46c-.38.35-.73.67-1.05,1a.75.75,0,0,1-.94.15.63.63,0,0,1-.12-1,14.33,14.33,0,0,1,1.62-2,7.8,7.8,0,0,1,3.92-7.27,8.25,8.25,0,0,1,6.52-.93.6.6,0,0,1,.49.81.72.72,0,0,1-.86.5,7,7,0,0,0-4,.92,6.77,6.77,0,0,0-2.87,3.25,22.51,22.51,0,0,1,2-1.3h0c5.11-3,10-3.48,11.34-1.18.92,1.56,0,4-2.62,6.74a.75.75,0,0,1-1,.16c-.48-.4-.08-.92.07-1.11,1.21-1.53,1.75-2.94,1.36-3.59-.8-1.35-4.93-.89-9.81,2-.55.32-1.09.66-1.68,1.06a4.58,4.58,0,0,0,.61,1.8,5.07,5.07,0,0,0,3.63,2.38.6.6,0,0,1,.58.73A.7.7,0,0,1,455.71,601.94Zm-6.36-5,.17.55a3.58,3.58,0,0,0,.38.84,5.94,5.94,0,0,0,4.56,2.87,5.77,5.77,0,0,1-3.26-2.54,5.41,5.41,0,0,1-.74-2.32v-.22l.19-.13c.69-.47,1.3-.86,1.93-1.23,5.74-3.33,9.89-3.37,10.88-1.7.52.88.05,2.12-.53,3.12,1.45-1.88,2-3.52,1.36-4.53-1.1-1.86-5.7-1.22-10.27,1.43h0a24.13,24.13,0,0,0-2.82,2l-.82.66.19-1a7.35,7.35,0,0,1,3.57-4.84,7.9,7.9,0,0,1,3.59-1.06,7.43,7.43,0,0,0-4.92,1,7,7,0,0,0-3.52,6.68l0,.18-.14.14c-.4.41-.76.82-1.08,1.21l.81-.71Zm9.39-8.12Z"/><path class="cls-15" d="M559.93,345.47,548.26,332a2,2,0,0,0-1.55-.71H488.66a1.46,1.46,0,0,0-1.13,2.39l33.05,40.86a.76.76,0,0,0,.59.28H584a.76.76,0,0,0,.56-1.26Z"/><path class="cls-11" d="M519.9,336.71a13.44,13.44,0,0,0-2.24.59,4.37,4.37,0,0,1,3.11-2.23,4.56,4.56,0,0,1,2.9.47c.14.08.24.07.32,0s0-.21-.07-.31a5,5,0,0,0-6.9.61,4.77,4.77,0,0,0-1,2.2,8.77,8.77,0,0,0-1.51,1c-.12.1-.15.2-.08.31a.21.21,0,0,0,.29,0c.4-.19.81-.38,1.24-.54a4.71,4.71,0,0,0,.06.74,4.82,4.82,0,0,0,3,3.61c.15.06.26,0,.32-.07s0-.21-.1-.29a4.16,4.16,0,0,1-1.91-2.78,3.87,3.87,0,0,1,0-1.66c.45-.11.92-.22,1.46-.3,3.47-.61,6.62,0,6.9,1.48.14.76-.68,1.67-1.73,2.38-.25.16-.27.25-.21.36s.19.13.33,0c1.88-1,3.18-2.33,3-3.61-.33-1.75-3.45-2.6-7.07-2"/><path class="cls-11" d="M522.25,341.48l-.92.77.66,3.47,1.1-.19a.18.18,0,0,0,.15-.21h0l-.71-3.75a.17.17,0,0,0-.19-.14.16.16,0,0,0-.09.05"/><path class="cls-11" d="M521.07,342.46l-.63.53a.25.25,0,0,0-.08.22l.49,2.59a.13.13,0,0,0,.14.1l.71-.12Z"/><path class="cls-16" d="M491,360l6.75-13.39,8.78-7.93-3,9.87-2.36,3.11c1.25.52,17.26-.37,18.54,3.39s.59,18.6.59,18.6-20.51,2.6-23.05,2c0,0-6.13,6.8-9,10.49-2.49,3.13-4,3.89-9.2,2.15s-5-13-.12-19.39C482,364.94,491,360,491,360Z"/><path class="cls-16" d="M474.24,384.9c-1.55-5-.08-12.26,3.41-16.88,2.85-3.77,10.28-8.07,12.17-9.14l6.54-13a1.7,1.7,0,0,1,.35-.45l8.78-7.94a1.57,1.57,0,0,1,2.56,1.62l-3,9.87a1.62,1.62,0,0,1-.25.49l-.62.81.61,0c8.28.23,15.23.71,16.42,4.22,1.33,3.93.75,17.64.68,19.18a1.58,1.58,0,0,1-1.38,1.49c-3.17.4-18,2.25-22.59,2.11-1.53,1.71-6.1,6.84-8.48,9.83-3.11,3.93-5.46,4.5-10.92,2.66a5.6,5.6,0,0,1-1.66-.87A7.8,7.8,0,0,1,474.24,384.9Zm44-29.33c-.32-.79-2.93-1.79-13.54-2.09-2.67-.08-3.54-.11-4.11-.35a1.56,1.56,0,0,1-.65-2.4l2.18-2.89,1.27-4.19-4.37,4-6.62,13.13a1.5,1.5,0,0,1-.65.67c-.09.05-8.8,4.81-11.6,8.51-3.23,4.27-4,10.5-2.92,14.06a4.13,4.13,0,0,0,2.29,2.89c4.66,1.57,5.45.9,7.47-1.64,2.92-3.68,8.86-10.28,9.11-10.56a1.58,1.58,0,0,1,1.51-.48c1.4.29,11.63-.71,21.19-1.9C519,366.4,519.05,357.94,518.25,355.57Z"/><path class="cls-16" d="M612.23,348.29l-1.29,15.52L573.6,350.15,557,342.46l-7.28,1.83s-22.86,1.5-23.07,2.95-1.25,2.7,0,2.91,19.33,1,19.33,1-19.5,1.25-19.94,2.7.19,3.74,1.23,3.74h21.2s-20,1.25-20.16,2.08-1.66,2.29.21,2.91,20.16,1.25,20.16,1.25L531.4,367s-.63,2.7.83,2.7,39.08,2.5,39.08,2.5,44.07,28.1,52.39,30.14,15.59-7.58,16.61-14.38c1.55-10.26,3-36.94,3-36.94Z"/><path class="cls-16" d="M623.32,403.85c-8.17-2-48.09-27.31-52.51-30.12-15.07-1-37.48-2.46-38.58-2.47a2.38,2.38,0,0,1-1.89-.89c-1-1.21-.6-3.16-.47-3.73a1.57,1.57,0,0,1,1.25-1.2l3.53-.63a45.14,45.14,0,0,1-6.66-.7,2.81,2.81,0,0,1-1.84-1.56,3.42,3.42,0,0,1,.43-2.87c.07-.13.14-.26.18-.35s0-.11,0-.17a2.62,2.62,0,0,1-1.57-1,5.79,5.79,0,0,1-.72-4.68c.15-.51.32-1.08,2.47-1.67l-.62-.07a2.22,2.22,0,0,1-1.62-1,3,3,0,0,1,0-2.64,5.11,5.11,0,0,0,.28-1c.2-1.4.39-2.71,24.39-4.29l7.13-1.79a1.58,1.58,0,0,1,1,.09l16.51,7.65,35.41,12.95,1.12-13.47a1.54,1.54,0,0,1,.55-1.07,1.6,1.6,0,0,1,1.15-.37l31,2.72a1.58,1.58,0,0,1,1.43,1.65c-.06,1.09-1.45,26.88-3,37.09a21.64,21.64,0,0,1-8.73,13.71,12.7,12.7,0,0,1-7.1,2.29A11.42,11.42,0,0,1,623.32,403.85ZM613.67,350l-1.16,13.95a1.57,1.57,0,0,1-2.11,1.34l-37.46-13.7-16.13-7.46-6.74,1.69-.28.05c-9.14.59-19.33,1.61-21.78,2.36,0,.16-.09.32-.14.47,3.1.21,12.24.66,18.15.93a1.57,1.57,0,0,1,0,3.14c-7.55.48-16.35,1.39-18.61,2.09a3.17,3.17,0,0,0,.21,1.21h20.79a1.57,1.57,0,0,1,.1,3.14c-8,.5-16.8,1.25-19.07,1.73,0,.06-.07.13-.1.2l0,.07c2.14.35,11.2.82,19.38,1.1a1.57,1.57,0,0,1,.22,3.12l-15.33,2.77c6.64.36,34.35,2.2,37.81,2.43a1.58,1.58,0,0,1,.74.24c15.17,9.68,45.54,28.38,51.92,29.94a8.94,8.94,0,0,0,7.31-1.52,18.56,18.56,0,0,0,7.38-11.57c1.31-8.66,2.54-29.48,2.87-35.27Z"/><path class="cls-16" d="M571.31,372.19a4.21,4.21,0,0,0-.76-.1l-2.25-.19-8.62-.63-13.62-.94-8.49-.58-4.64-.31a3.39,3.39,0,0,1-2.08-.54c-.36-.38.21-1.2.75-1.68l-.15.08,17.27-3.08a.35.35,0,0,0-.06-.7l-10.22-.46-5.33-.31c-.9-.07-1.8-.14-2.71-.23s-1.89-.12-2.37-.61-.23-1.47.31-1.79a8.76,8.76,0,0,1,1.25-.22l1.4-.16,5.71-.6,11.78-1.09a.41.41,0,0,0,.37-.45.41.41,0,0,0-.41-.38h-21.1c-.28.05-.61-.34-.82-.77A1.83,1.83,0,0,1,527,354a12.09,12.09,0,0,1,2.24-.49l2.43-.34,4.83-.58,9.54-1a.4.4,0,0,0,.37-.45.43.43,0,0,0-.39-.38l-12.31-.59-6-.34a4.3,4.3,0,0,1-1.27-.18.94.94,0,0,1-.32-.91,1.68,1.68,0,0,1,.54-1,2.62,2.62,0,0,1,1.16-.46c3.73-.77,7.54-1.13,11.19-1.56s7.26-.75,10.73-1.06h.06l7.27-1.84-.23,0,16.65,7.64h0l27.38,9.87,7.45,2.64,1.95.67.67.2a3.46,3.46,0,0,0-.64-.29l-1.92-.74L601,360,573.7,349.87h0l-16.61-7.74a.36.36,0,0,0-.23,0l-7.28,1.81h.06c-3.49.31-7.07.64-10.75,1s-7.44.76-11.3,1.55a3.32,3.32,0,0,0-1.5.64,2.49,2.49,0,0,0-.8,1.51,1.68,1.68,0,0,0,.69,1.69,4.26,4.26,0,0,0,1.63.31l6,.35,12.31.61,0-.83-9.55,1-4.85.58-2.45.34a10.65,10.65,0,0,0-2.54.6,2.25,2.25,0,0,0-1.08,1.66,3.45,3.45,0,0,0,.32,1.86,3,3,0,0,0,.55.8,1.59,1.59,0,0,0,.45.33,1.36,1.36,0,0,0,.58.13h21.1l0-.83-11.79,1.12-5.72.61-1.42.17a7,7,0,0,0-1.51.3,2.05,2.05,0,0,0-1,1.41,1.75,1.75,0,0,0,.46,1.63,2.59,2.59,0,0,0,1.45.66c.47.06.94.13,1.4.17.91.09,1.82.16,2.73.22l5.34.3,10.24.42,0-.71-17.25,3.16h0a.37.37,0,0,0-.14.07,4.31,4.31,0,0,0-.85,1.05,1.33,1.33,0,0,0,0,1.5,3.78,3.78,0,0,0,2.48.73l4.64.28,8.5.51,13.65.8,8.63.46,2.25.1A6.37,6.37,0,0,0,571.31,372.19Z"/><path class="cls-16" d="M570.84,373.76c.81,0,2-.15,2-1.5.08-1.52-1.4-1.66-2.18-1.73l-10.9-.83L536,368.07l13-2.3a1.94,1.94,0,0,0,1.56-2.24,1.94,1.94,0,0,0-1.82-1.58l-10.22-.45-5.31-.32-.53,0,4.19-.43,11.77-1.1a2,2,0,0,0-.17-4H527.89a.93.93,0,0,1-.06-.29c.24-.06.72-.14,1.06-.19l4.17-.58,3.58-.43,9.51-1a2,2,0,0,0-.1-4l-15.82-.8c2.34-.39,4.75-.66,7.09-.93l1.86-.21c3.64-.39,7.22-.74,10.68-1.06l.17,0,6.75-1.7,16,7.36.15.06,36.8,13.18c.64.21,2.1.7,2.64-.71s-.89-2.06-1.52-2.31l-1.93-.76-18.12-6.76-16.52-6.13-16.53-7.7a1.89,1.89,0,0,0-1.28-.12l-7.12,1.77c-3.45.3-7,.64-10.63,1l-1.93.22c-3.08.34-6.26.69-9.52,1.36l-.23,0a4.24,4.24,0,0,0-2,1,4,4,0,0,0-1.29,2.45,3.26,3.26,0,0,0,1.4,3.22l.14.08a3.25,3.25,0,0,0,.44.19,3.87,3.87,0,0,0-1.85,2.83,5.12,5.12,0,0,0,.45,2.7,4.85,4.85,0,0,0,.89,1.27,3.55,3.55,0,0,0,.73.55,4.1,4.1,0,0,0-.46,1.2,3.3,3.3,0,0,0,.91,3.13,4.11,4.11,0,0,0,2.25,1.05c.62.09,1.08.15,1.54.19l1.65.15-.78.14a1.85,1.85,0,0,0-.92.45A5.83,5.83,0,0,0,529,367a2.86,2.86,0,0,0,.26,3.32l.12.12a4.73,4.73,0,0,0,3.09,1.09l5,.31,33.06,1.87Z"/><path class="cls-16" d="M622.8,381.45a9.74,9.74,0,0,0-.29-3.27,20.61,20.61,0,0,0-3-7.34,19.91,19.91,0,0,0-5.66-5.57,8.84,8.84,0,0,0-2.93-1.46c-.21.26,4.5,2.44,7.89,7.49a24.44,24.44,0,0,1,3.1,7A18.23,18.23,0,0,0,622.8,381.45Z"/><path class="cls-16" d="M620.89,380.58c-.12-.49-.27-1.12-.47-1.84a23,23,0,0,0-2.89-6.56,24.33,24.33,0,0,0-6.63-6.39c-.9-.61-1.4-1-1.52-1.72a1.66,1.66,0,0,1,.16-1h0l.09-.15.08-.1h0a1.59,1.59,0,0,1,.83-.56c.33-.09,1.11-.3,4.19,1.67a21.82,21.82,0,0,1,6.11,6,22.51,22.51,0,0,1,3.22,7.92c.68,3.59.22,4.2,0,4.49A1.61,1.61,0,0,1,623,383h-.28C621.48,383,621.18,381.79,620.89,380.58Zm1.7-.69h0Zm-10.25-15.37a2.26,2.26,0,0,1-.16.26l.09-.13Z"/><path class="cls-17" d="M543.65,333.71a2,2,0,1,0,2.52-.92A1.9,1.9,0,0,0,543.65,333.71Z"/><path class="cls-17" d="M545.84,337.82a1.24,1.24,0,1,0,1.57-.57A1.17,1.17,0,0,0,545.84,337.82Z"/><path class="cls-13" d="M608.75,300.38l-1.24,47,40.07,3.83c0-.26,4.33-61-23.55-71Z"/><path class="cls-18" d="M616,207.68a43,43,0,0,1-2.28,31.78c-4.79,9.68,3.53,26.79-6.1,29.3-4.36,1.13-10.82,8.12-14.49,11-2.81,2.22-19.81-10.84-22.13-8s-5.77,5.21-9,4.12c-2.48-.83-4.23-3.51-6.78-4s-5,1.36-7.45,2.37c-5.89,2.41-13-.55-16-6.6-1.47-3.07-2.09-7-4.73-8.84s-6.18-.9-9.32-1.46c-6.2-1.1-10.2-9.56-7.56-16,1-2.51,2.86-4.74,3-7.46.15-3-1.76-5.48-3-8.1-3.86-8.21-.2-19.85,7.5-23.85,4.09-2.12,9-2.34,12.47-5.58s4.53-8.82,5.63-13.81c1.2-5.43,2.87-10.86,5.93-15.34s7.71-7.91,12.71-8.07c3.73-.12,7.47,1.54,11.11.58,4.15-1.1,7-5.22,10.34-8.26A23.4,23.4,0,0,1,598.1,146c5.21,1.55,10.07,5.38,11.94,11s-.08,12.95-5,15.66"/><rect class="cls-16" x="575.44" y="245.48" width="23.55" height="41.38" rx="3.49" transform="translate(1174.42 532.35) rotate(180)"/><path class="cls-16" d="M563.47,198.42S537.32,258,563.28,265s42.43-15.84,42.43-15.84,12.75,7.29,17.82-5.91c.23-.6,2.2-11-8.24-13,0,0-6.87-1.11-9,2.5L610.73,209Z"/><g class="cls-19"><path class="cls-20" d="M605.76,249.5s-26.67-6.08-30,17.3C575.77,266.8,587.32,270.06,605.76,249.5Z"/></g><path class="cls-21" d="M570.93,235.74a.32.32,0,0,0,.27-.25.33.33,0,0,0-.24-.4l-.87-.22a8.2,8.2,0,0,0-1-.27.33.33,0,0,0-.17,0l-.08,0a1.72,1.72,0,0,1-1.21-.78,3.48,3.48,0,0,1-.19-2.34l3-13.92a.33.33,0,1,0-.65-.14l-3,13.9a4.09,4.09,0,0,0,.27,2.84,2.4,2.4,0,0,0,1.63,1.09l.92.18h0l1.17.3Z"/><ellipse class="cls-21" cx="582.29" cy="211.74" rx="2.4" ry="7.59" transform="translate(246.57 732.5) rotate(-77.17)"/><ellipse class="cls-21" cx="561.73" cy="210.82" rx="7.59" ry="2.4" transform="translate(-17.16 53.11) rotate(-5.33)"/><path class="cls-11" d="M618.34,235.32a.19.19,0,0,0,.15-.09.22.22,0,0,0-.07-.29c-.06,0-6.12-3.5-10.47,1.19a.21.21,0,0,0,0,.29.22.22,0,0,0,.29,0c4.12-4.45,9.9-1.14,10-1.11A.2.2,0,0,0,618.34,235.32Z"/><path class="cls-22" d="M542.21,197.5a12.3,12.3,0,0,1,7.1-4.26c1.53-.24,3.11-.1,4.61-.49,3.22-.85,5.26-3.93,7.92-5.95a13.6,13.6,0,0,1,12.24-2c3.4,1.12,6.31,3.6,9.83,4.22,2.61.46,5.33-.14,7.91.47,5,1.19,7.81,6.43,9.68,11.23C600,204,596.41,205,592.92,206a12.59,12.59,0,0,1-10.38-1.71c-2.32-1.6-4.51-4.11-7.29-3.75-2.94.39-4.58,3.8-7.41,4.66-4.05,1.22-7.61-3.23-11.8-3.79-3.23-.43-6.24,1.5-9.16,2.94s-6.75,2.35-9.22.23A36.13,36.13,0,0,1,542.21,197.5Z"/><path class="cls-22" d="M584.27,180.19c3.1-.28,9.45-1,11.46-3.14,4.36-4.62,11.06-7.13,17.2-5.71s11.27,7.06,11.45,13.44a21.89,21.89,0,0,1,16.43,14.4,20.88,20.88,0,0,1,.71,2.8A14.71,14.71,0,0,1,640.34,215c-1.47,2.33-3.7,4.82-2.74,7.42s4.48,3.34,7.07,4.72c4.51,2.39,6.69,8.11,4.81,12.57-.68,1.6-1.82,3.12-1.75,4.86s1.45,3.31,2.42,4.89a12.54,12.54,0,0,1,.17,12.87,13.76,13.76,0,0,1-11.71,6.36c-2.16,0-4.42-.5-6.42.23-2.3.84-3.63,3-5.43,4.62a12.23,12.23,0,0,1-13.24,1.49,11.11,11.11,0,0,1-2.31-1.64c-1.73,1.58-6.81,0-10.59-.7L612.34,229a4.11,4.11,0,0,1-3.38,1.68c-8.21.29-6.65-15.26-4.15-19.11a45.32,45.32,0,0,1-6.56-9.26c-1.64-3.42-2.1-12.05-1-15.69C594.39,186.23,582.91,180.31,584.27,180.19Z"/><circle class="cls-16" cx="611.31" cy="240.17" r="10.99"/><path class="cls-11" d="M610.49,314l-.58,28.14c0,.78-.32,2.28.12,3,.26.43.93.56,1.37.72.63.22,1.26.43,1.9.63q3.12,1,6.32,1.75a84.13,84.13,0,0,0,13.1,2,86.36,86.36,0,0,0,14.91-.22c1-.1,1,1.47,0,1.57a86.1,86.1,0,0,1-27.72-1.69c-2.31-.52-4.59-1.15-6.85-1.86-1.62-.51-4.18-.88-4.65-2.82a11,11,0,0,1-.07-2.87l.08-3.88.15-7.38.35-17.08a.79.79,0,0,1,1.57,0Z"/><path class="cls-22" d="M616.81,368.73c-9-4.59-18-9.26-27-13.7a177.54,177.54,0,0,0-27.42-11.13c-4.41-1.3-9.77-2.86-14-.09-.84.56-1.63-.8-.79-1.35,3.63-2.41,8.18-1.9,12.2-.9a115.55,115.55,0,0,1,14.35,4.79c9.38,3.71,18.4,8.26,27.38,12.84q8,4.1,16.06,8.18c.9.46.1,1.82-.8,1.36Z"/><path class="cls-22" d="M551.78,345.21a73.44,73.44,0,0,0-21.35.15,11.49,11.49,0,0,0-4.18,1.44c-.66.42-1.8,1.14-1.08,2a4.19,4.19,0,0,0,2.11,1,22.66,22.66,0,0,0,5,.32l5.45.06,12.47.14a.79.79,0,0,1,0,1.57l-12.86-.15-6.43-.07a13.76,13.76,0,0,1-5.1-.7c-1.24-.5-2.81-1.56-2.49-3.12s2.08-2.5,3.35-3.05c3.33-1.47,7.39-1.54,11-1.72a81.35,81.35,0,0,1,14.13.55c1,.12,1,1.69,0,1.57Z"/><path class="cls-22" d="M536.62,351.68a26.52,26.52,0,0,0-9.43,1.51c-1.22.48-2.78,1.9-1.39,3.12,1.12,1,3,1.14,4.38,1.21,3.32.18,6.67.11,10,.16l10.19.13a.79.79,0,0,1,0,1.57l-12.54-.16c-2.08,0-4.16-.05-6.23-.09a14.7,14.7,0,0,1-5.4-.81,3.6,3.6,0,0,1-2.51-2.8,3.67,3.67,0,0,1,2.06-3.38,16.42,16.42,0,0,1,5.13-1.52,31.58,31.58,0,0,1,5.74-.51.79.79,0,0,1,0,1.57Z"/><path class="cls-22" d="M531.4,359.2a4.37,4.37,0,0,0-3.31,1.21c-.15.14-.48.42-.53.64s.18.42.44.58a11.32,11.32,0,0,0,1.79.76,31.36,31.36,0,0,0,7.71,1.69c5.42.56,10.92.5,16.36.66,1,0,1,1.6,0,1.57-3.48-.1-7-.19-10.43-.31a60,60,0,0,1-9.74-.91,26.63,26.63,0,0,1-4.64-1.3c-1-.41-2.57-.85-3-2s.7-2.36,1.58-3a5.87,5.87,0,0,1,3.78-1.13c1,.05,1,1.62,0,1.57Z"/><path class="cls-22" d="M541.65,366.28a21.49,21.49,0,0,0-9.49,2.65c-.55.3-1.57,1-.57,1.35a14.76,14.76,0,0,0,2.81.49c1.8.26,3.62.44,5.44.56,7.19.47,14.44.26,21.65.28l12.38,0a.79.79,0,0,1,0,1.57c-8.5,0-17,0-25.48-.05a113.54,113.54,0,0,1-12.51-.61c-1-.12-1.9-.25-2.84-.4a9.37,9.37,0,0,1-2.53-.55c-1.31-.66-1.14-2.37-.21-3.28,1.27-1.23,3.4-1.93,5.05-2.47a23.71,23.71,0,0,1,6.3-1.13c1,0,1,1.53,0,1.57Z"/><path class="cls-22" d="M571.25,372.35c2.67,1.38,4.92,3.41,7.31,5.2s5,3.58,7.5,5.26c5.11,3.35,10.4,6.41,15.77,9.34s10.81,5.84,16.31,8.56c2.88,1.42,6,2.87,9.3,3a10.57,10.57,0,0,0,7.25-2.73c5-4.36,6-11.25,6.65-17.5.1-1,1.68-1,1.57,0-.6,5.79-1.42,11.9-5.17,16.59a14.34,14.34,0,0,1-6.25,4.59,13.48,13.48,0,0,1-8.71-.26,59.9,59.9,0,0,1-8.85-4.05c-2.88-1.49-5.75-3-8.62-4.5-5.77-3.07-11.48-6.24-17-9.71-3-1.91-6-3.9-8.93-6s-5.67-4.7-8.9-6.37c-.9-.46-.11-1.82.79-1.36Z"/><path class="cls-22" d="M502.84,348.62a48.75,48.75,0,0,0,5.21-9.47c.21-.53.64-1.61-.06-2s-1.37.13-1.85.35a23.79,23.79,0,0,0-4.53,2.88c-5.67,4.45-9.6,10.66-13.39,16.69-.54.86-1.89.07-1.36-.79,3.52-5.6,7.15-11.33,12.14-15.76a31.39,31.39,0,0,1,3.72-2.86,13.57,13.57,0,0,1,3.93-2,2.61,2.61,0,0,1,2.81.76,3.22,3.22,0,0,1,.1,3.14,48.63,48.63,0,0,1-5.36,9.84c-.57.84-1.93,0-1.36-.79Z"/><path class="cls-22" d="M516.37,371.42c-1.92,5.25-3.74,10.7-3.69,16.36.05,4.25,1.33,9.1,5,11.73a8.79,8.79,0,0,0,11.89-1.66c2.8-3.55,2.7-8.41,2.46-12.68-.14-2.65.08-5.15,1.95-7.18a43.41,43.41,0,0,1,3.42-3.08l3.77-3.31c.75-.67,1.87.44,1.11,1.11-2.32,2-4.81,4-7,6.16s-1.77,4.82-1.63,7.57c.24,4.55-.26,9.72-3.57,13.17a10.39,10.39,0,0,1-12.3,1.84c-4-2.21-5.94-6.76-6.48-11.08-.83-6.63,1.33-13.23,3.58-19.36.34-.94,1.86-.54,1.51.41Z"/><path class="cls-11" d="M619,260.55a.69.69,0,0,1-.81-.22c-.38-.55.14-1,.39-1.17,2-1.61,3.08-3.32,2.77-4.36-.69-2.34-6.59-2.75-12.89-.89-.81.24-1.61.51-2.5.85a6.66,6.66,0,0,0,.23,2.69,7.05,7.05,0,0,0,3.89,4.4.67.67,0,0,1,.41.92.75.75,0,0,1-1,.41,8.79,8.79,0,0,1-6.42-6.12,6.53,6.53,0,0,1-.19-.9c-.66.36-1.26.7-1.81,1a.73.73,0,0,1-1-.09.68.68,0,0,1,.12-1,16.72,16.72,0,0,1,2.62-2.06,9.75,9.75,0,0,1,6.84-8,9.92,9.92,0,0,1,8.18,1,.67.67,0,0,1,.31,1,.73.73,0,0,1-1,.27,8.68,8.68,0,0,0-5.37-.16,8.44,8.44,0,0,0-4.87,3.76,28.44,28.44,0,0,1,3.32-1.22,22.54,22.54,0,0,1,9.19-.95c2.7.37,4.45,1.48,4.93,3.11.67,2.24-1.2,5-5.12,7.63A1.23,1.23,0,0,1,619,260.55Z"/><path class="cls-22" d="M646.79,381a14.55,14.55,0,0,1-6.45.57c-1.23-.23-4.08-1.77-2.48-3.32a2.7,2.7,0,0,1,2.44-.34,6.85,6.85,0,0,1,2.67,1.52,7.07,7.07,0,0,1,2.68,4.73,4.61,4.61,0,0,1-2.16,4.39,5.33,5.33,0,0,1-5.07-.13,8,8,0,0,1-2-1.54c-.57-.61-1.48-1.49-1.42-2.4.14-2.07,3.38-1.4,4.53-.85,3.74,1.79,5.36,6.14,6.3,9.88a.78.78,0,0,1-1.51.42,18,18,0,0,0-2.81-6.62,7.58,7.58,0,0,0-2.77-2.32,3.91,3.91,0,0,0-2-.31c-.34,0-.08.12-.11,0a2,2,0,0,0,.28.39,8.6,8.6,0,0,0,.7.79,5.17,5.17,0,0,0,3.23,1.71,2.87,2.87,0,0,0,2.93-1.57c1.13-2.47-1-5.12-3.08-6.24a3.33,3.33,0,0,0-1.07-.38,4.17,4.17,0,0,0-.5,0l-.12-.18a.59.59,0,0,0,.2.24,3.47,3.47,0,0,0,2,.7,14.69,14.69,0,0,0,5.1-.63.78.78,0,0,1,.42,1.51Z"/><path class="cls-23" d="M609.83,406.43c-9.86-3.77-20.05-7.61-30.53-7.13-3.1.14-6.25.66-9.29,0s-5.84-2.59-8.47-4.48c-16.61-11.92-32.51-24.89-48-38.37-4.43-3.87-9.09-7.91-14.74-9.17-10.44-2.32-20.19,5.41-28.24,12.65-10,9-20.08,18.05-30,27.2-17,15.67-33.83,31.9-46.82,51.28.17.51.36,1,.56,1.5l2.11-.11-2.08.19c.16.4.33.8.51,1.19s.27.59.41.88l.06.13,0,0c.31.54.59,1.09.91,1.63a49,49,0,0,0,4.42,6.19c.4.49.82,1,1.24,1.46l.06.06.08.08.57.62c.84.89,1.71,1.76,2.59,2.62,1.83,1.75,3.74,3.42,5.71,5s4.18,3.24,6.35,4.75l1.62,1.1.38.25h0l.75.48c1.09.7,2.19,1.39,3.31,2.06a126.85,126.85,0,0,0,13.27,7c1.24.56,2.49,1.1,3.74,1.61,1.41.05,2.82,0,4.23,0a.51.51,0,0,1,.22,0h0a17.8,17.8,0,0,0,4.47-3.38c20.22-19.37,30.19-47.33,43.08-72.61.87-1.71,1.86-3.51,3.54-4.37,2.11-1.08,4.75-.27,6.62,1.24s3.21,3.61,4.7,5.53a69.91,69.91,0,0,0,10.08,9.83L545.1,437c8.67,7.39,17.48,14.87,27.74,19.55s22.33,6.27,32.55,1.64a10.78,10.78,0,0,0,5-3.85,13.09,13.09,0,0,0,1.48-4.82A106,106,0,0,0,609.83,406.43Z"/><path class="cls-8" d="M610.52,405c-8.41-3.22-17-6.54-26.11-7.2-4.41-.32-9,.77-13.34.05-4.53-.75-8.32-4.12-11.91-6.74-15.42-11.26-30.18-23.38-44.59-35.91-6-5.2-12.51-10.48-20.92-9.92s-15.59,6-21.69,11.28c-14.44,12.5-28.57,25.5-42.41,38.66-7.35,7-14.52,14.19-21.23,21.81q-5,5.64-9.54,11.6-2.28,3-4.44,6.08a14.5,14.5,0,0,0-2,3c-.33,1,.14,1.8.5,2.73a1.62,1.62,0,0,0,1.61,1l2.11-.11-.25-3.14-2.08.19a1.59,1.59,0,0,0-1.36,2.11c4,9.75,12.5,17.36,20.82,23.47a121,121,0,0,0,14,8.86q4,2.18,8.2,4.07c3,1.34,5.25,2.18,8.58,1.74,1.95-.26,3.51-1.65,4.95-2.95a81.38,81.38,0,0,0,6-6.07,113.83,113.83,0,0,0,9.92-12.92,238.84,238.84,0,0,0,16.15-29.39c2.42-5,4.77-10.09,7.18-15.13q1.72-3.6,3.49-7.17c1.08-2.17,2.36-6.22,4.87-7.06,3-1,5.59,2.08,7.15,4.1a66.46,66.46,0,0,0,5.69,6.72c4.5,4.46,9.54,8.41,14.36,12.52,9.86,8.4,19.55,17.1,29.74,25.11,9.08,7.15,19.21,13.54,30.79,15.51a37.68,37.68,0,0,0,18.41-1.15c2.69-.9,5.57-2.13,7.52-4.27s2.51-5.38,2.94-8.32a108.71,108.71,0,0,0-2.31-42.27c-.49-2-3.45-.88-3,1.07a104.59,104.59,0,0,1,2.55,37.71c-.31,2.67-.4,5.91-1.63,8.35-1.44,2.86-5,4.12-7.89,5a34.78,34.78,0,0,1-16.78.66c-11.4-2.16-21.22-8.74-30.12-15.89-9.6-7.72-18.84-15.92-28.22-23.91-4.62-3.94-9.43-7.74-13.79-12a59.55,59.55,0,0,1-5.72-6.67,15,15,0,0,0-5.22-4.76c-4.56-2.13-8.12.31-10.29,4.35-2.5,4.65-4.71,9.48-7,14.26-9.13,19.24-18,39.31-32.69,55-2,2.17-4.34,3.93-6.45,6-1,.95.09.2-.69.36a10.21,10.21,0,0,1-2.53.08,12.46,12.46,0,0,1-4.63-1.49,121.62,121.62,0,0,1-17.37-9.54,93.76,93.76,0,0,1-15.25-12.42,44.78,44.78,0,0,1-8.85-12.68l-1.35,2.11,2.08-.19a1.58,1.58,0,0,0-.25-3.14l-2.11.12,1.6,1c-.2-.5-.39-1-.56-1.51l-.28,1.56c9.6-14.25,21.27-26.9,33.59-38.83,13.31-12.9,27.19-25.22,41-37.62,6.14-5.52,12.72-11.82,20.94-13.95,8.91-2.31,15.76,3.11,22.09,8.61,13.77,12,27.87,23.59,42.55,34.42,3.64,2.69,7.32,5.84,11.47,7.71s8.42,1.32,12.87,1.13c10.34-.44,20.24,3.35,29.73,7C611,408.57,612.41,405.74,610.52,405Z"/><path class="cls-23" d="M545,416.93a155.33,155.33,0,0,1,24.79,39.45c-13.38,3-24.35,7.46-34.88,6-14.3-2-27.59-9.45-41.78-12.08-1.37-.25-2.93-.45-4.07.35a5,5,0,0,0-1.62,2.88c-3.61,12.64-2.53,26-2.08,39.16.85,24.61-.62,49.24-2.09,73.83a7.61,7.61,0,0,1-.9,3.77c-1.08,1.63-3.2,2.19-5.13,2.58a128.44,128.44,0,0,1-61.89-2.94c-3-.9-6.17-2.07-7.92-4.63-2.37-3.46-1.3-8.1-.12-12.12,10.33-35.12,22.64-70,41.73-101.4,3.44-5.66,4.41-14.85,9.5-19.94s9.24-11.54,17.82-15.28c4.75-2.07,17.75-7,22.91-7.63,5-.59,15.51,1.32,20.36,2.54,22.46,5.66,37.79,27.21,50.35,46.39"/><path class="cls-8" d="M543.73,417.83a155.71,155.71,0,0,1,24.6,39.09l1.36-2.1c-9.5,1.15-19,2.3-28.62,2.18-9.37-.12-36.78-6-27.68-3.9,3.89.91-4-1-13.41-3.05-2.16-.48-4.34-.95-6.53-1.32-1.76-.29-3.71-.49-5.26.6-2.86,2-3.24,7.4-3.76,10.51a89.84,89.84,0,0,0-1.09,12.78c-.2,9.07.5,18.14.66,27.2.17,9.82,0,19.64-.35,29.45-.35,10-.9,19.93-1.48,29.89-.14,2.35-.26,4.69-.42,7s-.64,3.9-3.08,4.69c-4.26,1.39-9.15,1.75-13.59,2.2a126.56,126.56,0,0,1-27.17-.15,128.44,128.44,0,0,1-13.61-2.3c-4.1-.93-8.58-1.8-12.37-3.69-4.67-2.31-4.76-6.78-3.65-11.32,1-4.22,2.43-8.39,3.71-12.55,2.67-8.7,5.5-17.35,8.55-25.93a381.31,381.31,0,0,1,20.87-48.62,195.35,195.35,0,0,1,13.65-23.14,53.64,53.64,0,0,1,19.69-16.74c3.61-1.87,7.34-3.49,11.06-5.11,4.35-1.9,8.8-3.87,13.53-4.58,8.46-1.27,17.52,1.52,25.35,4.53A93.07,93.07,0,0,1,562,449.74a91.74,91.74,0,0,1,6.73,9c1.12,1.69,3.7-.1,2.58-1.79a95.54,95.54,0,0,0-34.64-31.43,94.53,94.53,0,0,0-21.86-8.39,36.67,36.67,0,0,0-27,2.17c-8.06,3.37-16.38,6.87-23.47,12.06s-12.11,12.29-16.64,19.73a327.09,327.09,0,0,0-24.44,50,547.5,547.5,0,0,0-17.62,52.46c-1.06,3.8-1.88,8.14.1,11.8,1.8,3.3,5.34,4.8,8.75,5.88a123.52,123.52,0,0,0,27.34,5.19,130.64,130.64,0,0,0,27.6-.7q3.61-.5,7.22-1.18a14.83,14.83,0,0,0,5.32-1.71c3.46-2.26,3-6.84,3.18-10.46,1.21-20.33,2.33-40.69,2.06-61.06-.13-9.52-.87-19-.69-28.55a81.74,81.74,0,0,1,1.41-14.31c.33-1.67.62-5.51,2.11-6.56,1-.73,3-.07,4.1.14,1.23.23,2.46.48,3.68.74,9.5,2,18.9,4.54,28.5,6a120.64,120.64,0,0,0,29.17.7c4.85-.41,9.68-1,14.5-1.58a1.6,1.6,0,0,0,1.36-2.1,158.85,158.85,0,0,0-25-39.81c-1.31-1.52-3.9.25-2.58,1.79Z"/><path class="cls-9" d="M569.67,398.31c7-2.13,14.25-1,21.23.72,7.6,1.89,15.15,4,22.71,6.08,0-.21,0-.42.08-.64.38.31.76.62,1.15.91,0,.22,0,.44-.07.65a.63.63,0,0,1-.74.5c-7.26-1.95-14.5-4-21.77-5.85s-14.82-3.41-22.15-1.19C569.33,399.73,568.9,398.54,569.67,398.31Z"/><path class="cls-9" d="M571.15,399.57c8.14,1.11,14.41,6.53,19.85,12.32,5.61,6,11.52,12.16,15.07,19.64.35.73,1.54.31,1.19-.43-3.66-7.7-9.66-14-15.44-20.17-5.58-5.94-12.09-11.46-20.44-12.6-.8-.11-1,1.13-.23,1.24Z"/><path class="cls-9" d="M390.2,438.82q14.94-17.91,30.87-34.95a429.06,429.06,0,0,1,31.66-31.17,208.11,208.11,0,0,1,17.06-13.4c5.92-4.15,12.39-8.86,19.31-11.12,7.66-2.49,14.61,1,21.11,4.85a169.55,169.55,0,0,1,18.72,13.08c13.81,10.87,27.24,22.25,40.81,33.4.63.52,1.45-.44.82-1-12.64-10.39-25.2-20.89-38-31.13a206.69,206.69,0,0,0-18.06-13.21c-5.61-3.58-12-7.77-18.85-8.19-7.13-.43-13.6,3.82-19.39,7.45a182.16,182.16,0,0,0-18.24,13.11c-11.54,9.36-22.11,19.84-32.37,30.57Q406.78,417,389.24,438c-.52.62.44,1.44,1,.82Z"/><path class="cls-9" d="M388.7,438.15c2.73,10.72,11.43,18.34,19.81,24.88,9.1,7.11,19,13.41,30,17.16,2.13.73,4.11,1.28,6.13,0,2.3-1.47,4.33-3.8,6.25-5.72a131.12,131.12,0,0,0,11.44-13.25,260.53,260.53,0,0,0,18.84-29.62c7.26-12.87,14.17-26,22.48-38.21.45-.66-.5-1.49-1-.82-13.18,19.41-22.8,41-36,60.37-6.24,9.2-13.34,18.4-21.94,25.54-2.85,2.37-6.31.45-9.31-.75-2.61-1-5.16-2.22-7.66-3.51A113.53,113.53,0,0,1,413,464.86c-9.47-7-20.08-15.2-23.12-27.14-.2-.78-1.39-.35-1.19.43Z"/><path class="cls-9" d="M500.54,398.19c8.16,10.06,16.13,20.24,25.52,29.21a177.18,177.18,0,0,0,28.24,22,107.49,107.49,0,0,0,17,9.17,49.74,49.74,0,0,0,17.8,3.11c9.81.15,22-.43,25.59-11.38,2.09-6.27,1.88-13.54,1.85-20.07a154.57,154.57,0,0,0-2-24c-.13-.79-1.39-.7-1.25.1,2,12.53,3,25.79,1.34,38.43-.73,5.66-2.88,10.92-8.36,13.43-4.93,2.25-10.7,2.26-16,2.25-6.54,0-13-.74-19.11-3.3a110.16,110.16,0,0,1-14.93-8.06A175.34,175.34,0,0,1,528.53,428c-10-9.3-18.38-20-26.95-30.54-.51-.62-1.55.09-1,.73Z"/><path class="cls-9" d="M492.07,409.2a27.19,27.19,0,0,1,17.18.8c.53.2.65-1,.12-1.23a27.66,27.66,0,0,0-17.4-.83c-.51.14-.42,1.4.1,1.26Z"/><path class="cls-9" d="M482.27,450.72a212.46,212.46,0,0,1,22.55,5.39c7.43,2.26,14.62,5.36,22.24,7,15,3.17,30.35-.49,45-4.05.78-.19.35-1.38-.44-1.19-15,3.64-30.56,7.31-45.89,3.65-7.17-1.72-14-4.61-21-6.73a212.82,212.82,0,0,0-22.15-5.27.63.63,0,0,0-.24,1.24Z"/><path class="cls-9" d="M488.18,452.34q-1.43,30.27-2,60.55-.31,15.36-.4,30.73,0,7.47,0,14.93,0,3.51,0,7c0,1.32,0,2.64,0,3.95,0,1.81.15,3.36-1.72,4.25-8.56,4.09-18.21,5.25-27.59,5.28a110.82,110.82,0,0,1-25.23-2.6c-8.35-1.93-16.48-5.22-23.25-10.57a23.47,23.47,0,0,1-2.16-1.83c-1.36-1.36-1.35-2.91-1.05-4.68.41-2.43,1-4.84,1.49-7.25q1.47-6.84,3.19-13.61a385.33,385.33,0,0,1,21.16-61.17c.33-.74-.8-1.29-1.13-.55a387.72,387.72,0,0,0-20.13,57.1q-2,7.35-3.63,14.78c-.54,2.41-1.05,4.82-1.55,7.24-.4,2-1.26,4.39-.81,6.44.37,1.68,1.72,2.78,3,3.83a50.27,50.27,0,0,0,5,3.6,58.11,58.11,0,0,0,12,5.72,93.89,93.89,0,0,0,25.37,4.59c9.24.51,18.68.28,27.65-2.16a49.45,49.45,0,0,0,6.69-2.32c1.2-.52,3.08-1.05,3.72-2.31.88-1.71.27-4.66.26-6.51,0-2.78,0-5.56,0-8.34q0-16.25.21-32.49.51-36.87,2.26-73.72c0-.81-1.22-.7-1.26.1Z"/><path class="cls-9" d="M431.28,555.1c4.81.33,9.44,1.59,14.12,2.68a93.13,93.13,0,0,0,43.56-.19c.77-.18.35-1.34-.42-1.16A92.61,92.61,0,0,1,459,558.71a94.16,94.16,0,0,1-13.76-2.23,85.64,85.64,0,0,0-13.73-2.59c-.78-.06-1,1.15-.23,1.21Z"/><path class="cls-9" d="M451.33,566.49c12.5.23,25.3.34,37.13-4.28a.61.61,0,0,0-.42-1.15c-11.73,4.57-24.42,4.43-36.81,4.2-.79,0-.69,1.22.1,1.23Z"/><path class="cls-9" d="M403.67,424.59c6.2,10.33,17.61,15,28.33,19.22.74.29,1.28-.82.54-1.11-10.54-4.11-21.77-8.67-27.86-18.81-.41-.68-1.42,0-1,.7Z"/><path class="cls-9" d="M396.18,427.73c-1.67,1.92,1.91,4.4,3.09,5.48a64.31,64.31,0,0,0,8.68,6.55,115.18,115.18,0,0,0,21.16,10.12c.73.28,1.27-.83.53-1.11a127.89,127.89,0,0,1-17.33-7.84c-1.53-.85-16.83-10.52-15.19-12.4.52-.59-.41-1.39-.94-.8Z"/><path class="cls-9" d="M578.94,450.45,596.05,446c.77-.2.34-1.35-.42-1.16l-17.11,4.45c-.77.19-.35,1.35.42,1.15Z"/><path class="cls-9" d="M584.36,443.68l6.78-1.36c.77-.15.68-1.38-.1-1.22l-6.78,1.35c-.77.16-.68,1.39.1,1.23Z"/><path class="cls-13" d="M571.79,395.05a30.4,30.4,0,0,1,14.75,3.14,63.42,63.42,0,0,1,8.17,5.9c5.4,4.13,11.81,7.57,18.6,7.27a7.13,7.13,0,0,0,3.28-.77,3,3,0,0,0,1.11-4.67,8.64,8.64,0,0,0-3.83-2.68,70.66,70.66,0,0,0-11.62-3.48c-8.4-2-16.86-4-25.49-4.36"/><path class="cls-23" d="M494.74,183.62a1.4,1.4,0,0,0,.8-2.61l-2.93-1.73a1.41,1.41,0,0,0-1.42,2.44c1,.56,1.94,1.13,2.9,1.71A1.43,1.43,0,0,0,494.74,183.62Z"/><path class="cls-23" d="M367.64,371.09a34.46,34.46,0,0,1-.91-7,1.41,1.41,0,1,1,2.82-.07,31.67,31.67,0,0,0,.83,6.45,1.41,1.41,0,0,1-1,1.69,1.87,1.87,0,0,1-.4,0A1.44,1.44,0,0,1,367.64,371.09Zm.82-12.45a1.4,1.4,0,0,1-1.09-1.66,27.34,27.34,0,0,1,2.36-6.76,1.41,1.41,0,0,1,1.9-.61,1.4,1.4,0,0,1,.61,1.89,24.45,24.45,0,0,0-2.12,6.06,1.39,1.39,0,0,1-1.45,1.11A.76.76,0,0,1,368.46,358.64Zm26.32-8.24a1.4,1.4,0,0,1,1.45-1.35l1.17,0a12.42,12.42,0,0,0,4.92-.81,1.4,1.4,0,1,1,1.11,2.58,14.87,14.87,0,0,1-6.12,1.05l-1.18-.05h0A1.4,1.4,0,0,1,394.78,350.4Zm-5.56.9a50.32,50.32,0,0,1-6.87-1.36,1.41,1.41,0,1,1,.76-2.71,48.74,48.74,0,0,0,6.47,1.28,1.41,1.41,0,0,1-.26,2.8Zm-13.48-3.88a28.82,28.82,0,0,1-3.74-2.27,26.16,26.16,0,0,1-2.18-1.72,1.41,1.41,0,0,1,1.85-2.12,24.71,24.71,0,0,0,2,1.55c.35.25.71.49,1.08.73a25,25,0,0,1,5-3.55,1.41,1.41,0,1,1,1.35,2.47,22.39,22.39,0,0,0-3.75,2.57,1.39,1.39,0,0,1,.35,1.72,1.4,1.4,0,0,1-1.89.62Zm28.3-2.61a6.6,6.6,0,0,0-2-2.06,16.58,16.58,0,0,0-2.59-1.49,1.41,1.41,0,1,1,1.17-2.56,19.59,19.59,0,0,1,3.05,1.75,9.29,9.29,0,0,1,2.86,3,1.41,1.41,0,0,1-2.49,1.33Zm-18.71-5.63a1.42,1.42,0,0,1,1.06-1.69,24.42,24.42,0,0,1,6.77-.59l.41,0a1.39,1.39,0,0,1,1.3,1.5,1.41,1.41,0,0,1-1.48,1.31h0l-.36,0a21.43,21.43,0,0,0-6,.53,1.33,1.33,0,0,1-.39,0A1.39,1.39,0,0,1,385.33,339.18Zm-20.29-1a45.77,45.77,0,0,1-3.69-6,1.41,1.41,0,0,1,2.5-1.3,42.52,42.52,0,0,0,3.46,5.6,1.41,1.41,0,0,1-.3,2,1.48,1.48,0,0,1-.91.28A1.41,1.41,0,0,1,365,338.18Zm-6.56-12.29c-.42-1-.81-2.06-1.18-3.09s-.81-2.24-1.2-3.37a1.41,1.41,0,1,1,2.67-.91c.38,1.11.77,2.22,1.17,3.32s.75,2,1.15,3a1.41,1.41,0,1,1-2.61,1.05Zm-4.43-13q-.94-3.3-1.73-6.65a1.41,1.41,0,1,1,2.74-.64c.51,2.19,1.08,4.36,1.69,6.52a1.4,1.4,0,0,1-1,1.74,1.52,1.52,0,0,1-.47.06A1.42,1.42,0,0,1,354.05,312.86Zm-3.11-13.39c-.4-2.27-.74-4.57-1-6.82a1.41,1.41,0,0,1,2.8-.33c.26,2.2.58,4.44,1,6.66a1.42,1.42,0,0,1-1.15,1.63,1.77,1.77,0,0,1-.32,0A1.42,1.42,0,0,1,350.94,299.47Zm-1.59-13.69c-.13-2.31-.18-4.63-.16-6.9a1.41,1.41,0,0,1,1.42-1.39,1.49,1.49,0,0,1,1.4,1.43c0,2.2,0,4.45.15,6.71a1.41,1.41,0,0,1-1.33,1.48h-.16A1.4,1.4,0,0,1,349.35,285.78Zm1.45-12.28a1.39,1.39,0,0,1-1.29-1.51c.18-2.31.46-4.62.81-6.87a1.42,1.42,0,0,1,1.61-1.17,1.4,1.4,0,0,1,1.17,1.61c-.34,2.17-.61,4.42-.79,6.65a1.41,1.41,0,0,1-1.48,1.3ZM352.7,260a1.41,1.41,0,0,1-1.05-1.69c.54-2.24,1.18-4.48,1.9-6.67a1.41,1.41,0,0,1,2.68.89c-.7,2.11-1.32,4.28-1.83,6.43a1.43,1.43,0,0,1-1.45,1.08Zm4.05-13a1.39,1.39,0,0,1-.74-1.84c.9-2.12,1.91-4.22,3-6.25a1.41,1.41,0,0,1,2.49,1.33c-1.05,2-2,4-2.89,6a1.42,1.42,0,0,1-1.38.86A1.36,1.36,0,0,1,356.75,247Zm6.19-12.11a1.4,1.4,0,0,1-.41-1.94c1.27-2,2.63-3.85,4.05-5.63a1.41,1.41,0,0,1,2.21,1.75c-1.37,1.72-2.68,3.54-3.9,5.41a1.4,1.4,0,0,1-1.26.64A1.35,1.35,0,0,1,362.94,234.93Zm73.75-3a1.41,1.41,0,1,1,.54-2.76,32.76,32.76,0,0,0,3.41.43,21.11,21.11,0,0,0,3,0,1.41,1.41,0,0,1,.22,2.81,16.63,16.63,0,0,1-3.38,0A26.69,26.69,0,0,1,436.69,232Zm-6.77-2.07a55.15,55.15,0,0,1-6.26-3.07,1.41,1.41,0,1,1,1.38-2.45,51.27,51.27,0,0,0,5.95,2.91,1.41,1.41,0,0,1-.61,2.72A1.54,1.54,0,0,1,429.92,229.88Zm19.08,0a1.41,1.41,0,0,1,.51-1.93,6.07,6.07,0,0,0,3.18-4.23,1.45,1.45,0,0,1,1.56-1.24,1.4,1.4,0,0,1,1.24,1.55l0,.34a8.63,8.63,0,0,1-4.52,6,1.33,1.33,0,0,1-.79.19A1.4,1.4,0,0,1,449,229.83Zm-77.81-5.71a1.41,1.41,0,0,1,0-2,68.7,68.7,0,0,1,5.06-4.76,1.41,1.41,0,0,1,1.82,2.15c-1.67,1.42-3.31,3-4.85,4.56a1.41,1.41,0,0,1-2,0Zm46.59-.93c-2.1-1.39-3.94-2.7-5.64-4a1.41,1.41,0,1,1,1.73-2.23c1.63,1.27,3.42,2.54,5.46,3.89a1.41,1.41,0,0,1-.86,2.58A1.35,1.35,0,0,1,417.78,223.19Zm-36.41-8.08a1.4,1.4,0,0,1,.37-2,63.14,63.14,0,0,1,5.95-3.6A1.41,1.41,0,0,1,389,212a60.15,60.15,0,0,0-5.69,3.44,1.41,1.41,0,0,1-1.95-.37Zm69.33,3.43A18.77,18.77,0,0,0,448,216c-.71-.58-1.45-1.13-2.19-1.66a1.41,1.41,0,1,1,1.62-2.3c.8.56,1.58,1.15,2.34,1.76a21.5,21.5,0,0,1,3.05,2.94,1.41,1.41,0,1,1-2.15,1.81Zm-43.83-3.93a40.29,40.29,0,0,1-4.59-5.34,1.41,1.41,0,0,1,2.3-1.63,36.76,36.76,0,0,0,4.27,5,1.42,1.42,0,0,1,0,2,1.4,1.4,0,0,1-1.08.42A1.44,1.44,0,0,1,406.87,214.61Zm-13.64-6.13a1.4,1.4,0,0,1,.81-1.82,59.55,59.55,0,0,1,6.63-2.13,1.41,1.41,0,1,1,.7,2.73,57.37,57.37,0,0,0-6.32,2,1.34,1.34,0,0,1-.59.1A1.41,1.41,0,0,1,393.23,208.48Zm46.95,2.44a49.09,49.09,0,0,0-6.08-2.58,1.41,1.41,0,1,1,.92-2.66,51.84,51.84,0,0,1,6.44,2.73,1.41,1.41,0,1,1-1.28,2.51Zm-33.88-6.16a1.41,1.41,0,0,1,1.2-1.59,62.24,62.24,0,0,1,6.94-.58,1.41,1.41,0,1,1,.08,2.81,59.08,59.08,0,0,0-6.63.56h-.27A1.42,1.42,0,0,1,406.3,204.76Zm21.42,1.81a55,55,0,0,0-6.57-1,1.41,1.41,0,1,1,.25-2.81,60.69,60.69,0,0,1,6.9,1,1.41,1.41,0,0,1-.37,2.79ZM398.86,203c-.33-.84-.62-1.71-.87-2.59a25.09,25.09,0,0,1-.78-4.42,1.41,1.41,0,0,1,2.81-.23,21.08,21.08,0,0,0,.69,3.9,23.16,23.16,0,0,0,.77,2.31,1.41,1.41,0,0,1-2.62,1Zm-.12-12.51a1.41,1.41,0,0,1-1.11-1.65,30,30,0,0,1,2.21-6.78,1.4,1.4,0,0,1,1.87-.69,1.42,1.42,0,0,1,.69,1.87,26.78,26.78,0,0,0-2,6.13,1.41,1.41,0,0,1-1.46,1.14Zm5-12.55a1.4,1.4,0,0,1-.27-2,34.33,34.33,0,0,1,4.82-5.19,1.41,1.41,0,0,1,1.86,2.12,30.79,30.79,0,0,0-4.43,4.77,1.41,1.41,0,0,1-1.21.55A1.32,1.32,0,0,1,403.76,178Zm81.55.42q-3-1.63-6-3.16a1.41,1.41,0,0,1,1.27-2.51q3.06,1.54,6.06,3.2a1.41,1.41,0,0,1-1.35,2.47Zm-71.74-9.74a1.41,1.41,0,0,1,.53-1.91,42,42,0,0,1,6.41-2.92,1.41,1.41,0,0,1,.95,2.65,39.54,39.54,0,0,0-6,2.72,1.43,1.43,0,0,1-.77.18A1.41,1.41,0,0,1,413.57,168.64Zm59.67,3.67c-2.1-.95-4.19-1.82-6.2-2.6a1.41,1.41,0,1,1,1-2.63c2.06.8,4.2,1.69,6.35,2.67a1.4,1.4,0,0,1-.66,2.68A1.18,1.18,0,0,1,473.24,172.31Zm-12.54-4.82c-2.17-.68-4.34-1.28-6.46-1.78a1.4,1.4,0,0,1-1.05-1.69,1.42,1.42,0,0,1,1.69-1.05c2.19.51,4.43,1.13,6.66,1.83a1.4,1.4,0,0,1,.92,1.77,1.41,1.41,0,0,1-1.42,1A2,2,0,0,1,460.7,167.49Zm-34.54-3.87a1.42,1.42,0,0,1,1.11-1.66,54.86,54.86,0,0,1,6.93-.9,1.41,1.41,0,0,1,.19,2.82,50.79,50.79,0,0,0-6.57.85,1.4,1.4,0,0,1-.35,0A1.41,1.41,0,0,1,426.16,163.62Zm15.53.23-.65,0h0a1.41,1.41,0,0,1-1.33-1.47,1.42,1.42,0,0,1,1.47-1.34l.68,0c2.06.12,4.16.33,6.24.64l-.42,2.78C445.67,164.16,443.66,164,441.69,163.85Z"/><path class="cls-23" d="M372.83,381.87a1.45,1.45,0,0,0,.8-.2,1.4,1.4,0,0,0,.49-1.93c-.55-.92-1.05-1.88-1.51-2.86a1.41,1.41,0,0,0-2.56,1.19,32.86,32.86,0,0,0,1.65,3.11A1.42,1.42,0,0,0,372.83,381.87Z"/><path id="Caminho_3674" data-name="Caminho 3674" class="cls-24" d="M308.23,361.43a18,18,0,0,1,2-8.81,18,18,0,0,1,8.61-2.72,17.09,17.09,0,0,1-8.81-2,16.5,16.5,0,0,1-2.72-8.61,16.24,16.24,0,0,1-2.11,9,15.69,15.69,0,0,1-8.52,2.54,17.09,17.09,0,0,1,8.81,2A16.74,16.74,0,0,1,308.23,361.43Z"/><path id="Caminho_3675" data-name="Caminho 3675" class="cls-24" d="M487.92,299.82a12.85,12.85,0,0,1,1.54-6.62,13.37,13.37,0,0,1,6.32-2,12.23,12.23,0,0,1-6.49-1.47,12.64,12.64,0,0,1-2-6.34,11.82,11.82,0,0,1-1.6,6.59,10.91,10.91,0,0,1-6.22,1.87,12.72,12.72,0,0,1,6.49,1.47A12.31,12.31,0,0,1,487.92,299.82Z"/><path id="Caminho_3675-2" data-name="Caminho 3675" class="cls-24" d="M663.63,407.55a9.68,9.68,0,0,1,1.16-5,10,10,0,0,1,4.78-1.51,9.32,9.32,0,0,1-4.91-1.12,9.57,9.57,0,0,1-1.49-4.79,9,9,0,0,1-1.21,5,8.21,8.21,0,0,1-4.7,1.41,9.66,9.66,0,0,1,4.91,1.12A9.39,9.39,0,0,1,663.63,407.55Z"/><path id="Caminho_3674-2" data-name="Caminho 3674" class="cls-24" d="M634,112.69a12.86,12.86,0,0,1,1.44-6.26,12.83,12.83,0,0,1,6.13-1.94,12,12,0,0,1-6.27-1.44,11.81,11.81,0,0,1-1.94-6.12,11.52,11.52,0,0,1-1.5,6.39,11,11,0,0,1-6.06,1.81,12.21,12.21,0,0,1,6.27,1.44A11.83,11.83,0,0,1,634,112.69Z"/><path id="Caminho_3674-3" data-name="Caminho 3674" class="cls-24" d="M655.54,139.22a9,9,0,0,1,1-4.38,9,9,0,0,1,4.28-1.35,8.43,8.43,0,0,1-4.38-1,8.2,8.2,0,0,1-1.35-4.28,8.16,8.16,0,0,1-1.05,4.46,7.78,7.78,0,0,1-4.24,1.27,8.43,8.43,0,0,1,4.38,1A8.29,8.29,0,0,1,655.54,139.22Z"/></svg>